%TF.GenerationSoftware,KiCad,Pcbnew,8.0.3*%
%TF.CreationDate,2024-08-02T22:15:16+02:00*%
%TF.ProjectId,ARD-MOTORES2,4152442d-4d4f-4544-9f52-4553322e6b69,rev?*%
%TF.SameCoordinates,Original*%
%TF.FileFunction,Legend,Top*%
%TF.FilePolarity,Positive*%
%FSLAX46Y46*%
G04 Gerber Fmt 4.6, Leading zero omitted, Abs format (unit mm)*
G04 Created by KiCad (PCBNEW 8.0.3) date 2024-08-02 22:15:16*
%MOMM*%
%LPD*%
G01*
G04 APERTURE LIST*
%ADD10C,0.150000*%
%ADD11C,0.120000*%
G04 APERTURE END LIST*
D10*
X133609580Y-91566666D02*
X133657200Y-91614285D01*
X133657200Y-91614285D02*
X133704819Y-91757142D01*
X133704819Y-91757142D02*
X133704819Y-91852380D01*
X133704819Y-91852380D02*
X133657200Y-91995237D01*
X133657200Y-91995237D02*
X133561961Y-92090475D01*
X133561961Y-92090475D02*
X133466723Y-92138094D01*
X133466723Y-92138094D02*
X133276247Y-92185713D01*
X133276247Y-92185713D02*
X133133390Y-92185713D01*
X133133390Y-92185713D02*
X132942914Y-92138094D01*
X132942914Y-92138094D02*
X132847676Y-92090475D01*
X132847676Y-92090475D02*
X132752438Y-91995237D01*
X132752438Y-91995237D02*
X132704819Y-91852380D01*
X132704819Y-91852380D02*
X132704819Y-91757142D01*
X132704819Y-91757142D02*
X132752438Y-91614285D01*
X132752438Y-91614285D02*
X132800057Y-91566666D01*
X132704819Y-91233332D02*
X132704819Y-90614285D01*
X132704819Y-90614285D02*
X133085771Y-90947618D01*
X133085771Y-90947618D02*
X133085771Y-90804761D01*
X133085771Y-90804761D02*
X133133390Y-90709523D01*
X133133390Y-90709523D02*
X133181009Y-90661904D01*
X133181009Y-90661904D02*
X133276247Y-90614285D01*
X133276247Y-90614285D02*
X133514342Y-90614285D01*
X133514342Y-90614285D02*
X133609580Y-90661904D01*
X133609580Y-90661904D02*
X133657200Y-90709523D01*
X133657200Y-90709523D02*
X133704819Y-90804761D01*
X133704819Y-90804761D02*
X133704819Y-91090475D01*
X133704819Y-91090475D02*
X133657200Y-91185713D01*
X133657200Y-91185713D02*
X133609580Y-91233332D01*
X124109580Y-91566666D02*
X124157200Y-91614285D01*
X124157200Y-91614285D02*
X124204819Y-91757142D01*
X124204819Y-91757142D02*
X124204819Y-91852380D01*
X124204819Y-91852380D02*
X124157200Y-91995237D01*
X124157200Y-91995237D02*
X124061961Y-92090475D01*
X124061961Y-92090475D02*
X123966723Y-92138094D01*
X123966723Y-92138094D02*
X123776247Y-92185713D01*
X123776247Y-92185713D02*
X123633390Y-92185713D01*
X123633390Y-92185713D02*
X123442914Y-92138094D01*
X123442914Y-92138094D02*
X123347676Y-92090475D01*
X123347676Y-92090475D02*
X123252438Y-91995237D01*
X123252438Y-91995237D02*
X123204819Y-91852380D01*
X123204819Y-91852380D02*
X123204819Y-91757142D01*
X123204819Y-91757142D02*
X123252438Y-91614285D01*
X123252438Y-91614285D02*
X123300057Y-91566666D01*
X123300057Y-91185713D02*
X123252438Y-91138094D01*
X123252438Y-91138094D02*
X123204819Y-91042856D01*
X123204819Y-91042856D02*
X123204819Y-90804761D01*
X123204819Y-90804761D02*
X123252438Y-90709523D01*
X123252438Y-90709523D02*
X123300057Y-90661904D01*
X123300057Y-90661904D02*
X123395295Y-90614285D01*
X123395295Y-90614285D02*
X123490533Y-90614285D01*
X123490533Y-90614285D02*
X123633390Y-90661904D01*
X123633390Y-90661904D02*
X124204819Y-91233332D01*
X124204819Y-91233332D02*
X124204819Y-90614285D01*
X115109580Y-91764015D02*
X115157200Y-91811634D01*
X115157200Y-91811634D02*
X115204819Y-91954491D01*
X115204819Y-91954491D02*
X115204819Y-92049729D01*
X115204819Y-92049729D02*
X115157200Y-92192586D01*
X115157200Y-92192586D02*
X115061961Y-92287824D01*
X115061961Y-92287824D02*
X114966723Y-92335443D01*
X114966723Y-92335443D02*
X114776247Y-92383062D01*
X114776247Y-92383062D02*
X114633390Y-92383062D01*
X114633390Y-92383062D02*
X114442914Y-92335443D01*
X114442914Y-92335443D02*
X114347676Y-92287824D01*
X114347676Y-92287824D02*
X114252438Y-92192586D01*
X114252438Y-92192586D02*
X114204819Y-92049729D01*
X114204819Y-92049729D02*
X114204819Y-91954491D01*
X114204819Y-91954491D02*
X114252438Y-91811634D01*
X114252438Y-91811634D02*
X114300057Y-91764015D01*
X115204819Y-90811634D02*
X115204819Y-91383062D01*
X115204819Y-91097348D02*
X114204819Y-91097348D01*
X114204819Y-91097348D02*
X114347676Y-91192586D01*
X114347676Y-91192586D02*
X114442914Y-91287824D01*
X114442914Y-91287824D02*
X114490533Y-91383062D01*
X175674819Y-58666666D02*
X175198628Y-58999999D01*
X175674819Y-59238094D02*
X174674819Y-59238094D01*
X174674819Y-59238094D02*
X174674819Y-58857142D01*
X174674819Y-58857142D02*
X174722438Y-58761904D01*
X174722438Y-58761904D02*
X174770057Y-58714285D01*
X174770057Y-58714285D02*
X174865295Y-58666666D01*
X174865295Y-58666666D02*
X175008152Y-58666666D01*
X175008152Y-58666666D02*
X175103390Y-58714285D01*
X175103390Y-58714285D02*
X175151009Y-58761904D01*
X175151009Y-58761904D02*
X175198628Y-58857142D01*
X175198628Y-58857142D02*
X175198628Y-59238094D01*
X174674819Y-58333332D02*
X174674819Y-57714285D01*
X174674819Y-57714285D02*
X175055771Y-58047618D01*
X175055771Y-58047618D02*
X175055771Y-57904761D01*
X175055771Y-57904761D02*
X175103390Y-57809523D01*
X175103390Y-57809523D02*
X175151009Y-57761904D01*
X175151009Y-57761904D02*
X175246247Y-57714285D01*
X175246247Y-57714285D02*
X175484342Y-57714285D01*
X175484342Y-57714285D02*
X175579580Y-57761904D01*
X175579580Y-57761904D02*
X175627200Y-57809523D01*
X175627200Y-57809523D02*
X175674819Y-57904761D01*
X175674819Y-57904761D02*
X175674819Y-58190475D01*
X175674819Y-58190475D02*
X175627200Y-58285713D01*
X175627200Y-58285713D02*
X175579580Y-58333332D01*
X163333333Y-90234819D02*
X163000000Y-89758628D01*
X162761905Y-90234819D02*
X162761905Y-89234819D01*
X162761905Y-89234819D02*
X163142857Y-89234819D01*
X163142857Y-89234819D02*
X163238095Y-89282438D01*
X163238095Y-89282438D02*
X163285714Y-89330057D01*
X163285714Y-89330057D02*
X163333333Y-89425295D01*
X163333333Y-89425295D02*
X163333333Y-89568152D01*
X163333333Y-89568152D02*
X163285714Y-89663390D01*
X163285714Y-89663390D02*
X163238095Y-89711009D01*
X163238095Y-89711009D02*
X163142857Y-89758628D01*
X163142857Y-89758628D02*
X162761905Y-89758628D01*
X163714286Y-89330057D02*
X163761905Y-89282438D01*
X163761905Y-89282438D02*
X163857143Y-89234819D01*
X163857143Y-89234819D02*
X164095238Y-89234819D01*
X164095238Y-89234819D02*
X164190476Y-89282438D01*
X164190476Y-89282438D02*
X164238095Y-89330057D01*
X164238095Y-89330057D02*
X164285714Y-89425295D01*
X164285714Y-89425295D02*
X164285714Y-89520533D01*
X164285714Y-89520533D02*
X164238095Y-89663390D01*
X164238095Y-89663390D02*
X163666667Y-90234819D01*
X163666667Y-90234819D02*
X164285714Y-90234819D01*
X116833333Y-77734819D02*
X116500000Y-77258628D01*
X116261905Y-77734819D02*
X116261905Y-76734819D01*
X116261905Y-76734819D02*
X116642857Y-76734819D01*
X116642857Y-76734819D02*
X116738095Y-76782438D01*
X116738095Y-76782438D02*
X116785714Y-76830057D01*
X116785714Y-76830057D02*
X116833333Y-76925295D01*
X116833333Y-76925295D02*
X116833333Y-77068152D01*
X116833333Y-77068152D02*
X116785714Y-77163390D01*
X116785714Y-77163390D02*
X116738095Y-77211009D01*
X116738095Y-77211009D02*
X116642857Y-77258628D01*
X116642857Y-77258628D02*
X116261905Y-77258628D01*
X117785714Y-77734819D02*
X117214286Y-77734819D01*
X117500000Y-77734819D02*
X117500000Y-76734819D01*
X117500000Y-76734819D02*
X117404762Y-76877676D01*
X117404762Y-76877676D02*
X117309524Y-76972914D01*
X117309524Y-76972914D02*
X117214286Y-77020533D01*
X128266905Y-83414819D02*
X128266905Y-82414819D01*
X128266905Y-82414819D02*
X128505000Y-82414819D01*
X128505000Y-82414819D02*
X128647857Y-82462438D01*
X128647857Y-82462438D02*
X128743095Y-82557676D01*
X128743095Y-82557676D02*
X128790714Y-82652914D01*
X128790714Y-82652914D02*
X128838333Y-82843390D01*
X128838333Y-82843390D02*
X128838333Y-82986247D01*
X128838333Y-82986247D02*
X128790714Y-83176723D01*
X128790714Y-83176723D02*
X128743095Y-83271961D01*
X128743095Y-83271961D02*
X128647857Y-83367200D01*
X128647857Y-83367200D02*
X128505000Y-83414819D01*
X128505000Y-83414819D02*
X128266905Y-83414819D01*
X129790714Y-83414819D02*
X129219286Y-83414819D01*
X129505000Y-83414819D02*
X129505000Y-82414819D01*
X129505000Y-82414819D02*
X129409762Y-82557676D01*
X129409762Y-82557676D02*
X129314524Y-82652914D01*
X129314524Y-82652914D02*
X129219286Y-82700533D01*
X99584819Y-82825238D02*
X100299104Y-82825238D01*
X100299104Y-82825238D02*
X100441961Y-82872857D01*
X100441961Y-82872857D02*
X100537200Y-82968095D01*
X100537200Y-82968095D02*
X100584819Y-83110952D01*
X100584819Y-83110952D02*
X100584819Y-83206190D01*
X100061009Y-82015714D02*
X100061009Y-82349047D01*
X100584819Y-82349047D02*
X99584819Y-82349047D01*
X99584819Y-82349047D02*
X99584819Y-81872857D01*
X99584819Y-81491904D02*
X100394342Y-81491904D01*
X100394342Y-81491904D02*
X100489580Y-81444285D01*
X100489580Y-81444285D02*
X100537200Y-81396666D01*
X100537200Y-81396666D02*
X100584819Y-81301428D01*
X100584819Y-81301428D02*
X100584819Y-81110952D01*
X100584819Y-81110952D02*
X100537200Y-81015714D01*
X100537200Y-81015714D02*
X100489580Y-80968095D01*
X100489580Y-80968095D02*
X100394342Y-80920476D01*
X100394342Y-80920476D02*
X99584819Y-80920476D01*
X100061009Y-80444285D02*
X100061009Y-80110952D01*
X100584819Y-79968095D02*
X100584819Y-80444285D01*
X100584819Y-80444285D02*
X99584819Y-80444285D01*
X99584819Y-80444285D02*
X99584819Y-79968095D01*
X100584819Y-79539523D02*
X99584819Y-79539523D01*
X99584819Y-79539523D02*
X100584819Y-78968095D01*
X100584819Y-78968095D02*
X99584819Y-78968095D01*
X99584819Y-78634761D02*
X99584819Y-78063333D01*
X100584819Y-78349047D02*
X99584819Y-78349047D01*
X100061009Y-77729999D02*
X100061009Y-77396666D01*
X100584819Y-77253809D02*
X100584819Y-77729999D01*
X100584819Y-77729999D02*
X99584819Y-77729999D01*
X99584819Y-77729999D02*
X99584819Y-77253809D01*
X100584819Y-76301428D02*
X100584819Y-76872856D01*
X100584819Y-76587142D02*
X99584819Y-76587142D01*
X99584819Y-76587142D02*
X99727676Y-76682380D01*
X99727676Y-76682380D02*
X99822914Y-76777618D01*
X99822914Y-76777618D02*
X99870533Y-76872856D01*
X177375057Y-73595238D02*
X177327438Y-73690476D01*
X177327438Y-73690476D02*
X177232200Y-73785714D01*
X177232200Y-73785714D02*
X177089342Y-73928571D01*
X177089342Y-73928571D02*
X177041723Y-74023809D01*
X177041723Y-74023809D02*
X177041723Y-74119047D01*
X177279819Y-74071428D02*
X177232200Y-74166666D01*
X177232200Y-74166666D02*
X177136961Y-74261904D01*
X177136961Y-74261904D02*
X176946485Y-74309523D01*
X176946485Y-74309523D02*
X176613152Y-74309523D01*
X176613152Y-74309523D02*
X176422676Y-74261904D01*
X176422676Y-74261904D02*
X176327438Y-74166666D01*
X176327438Y-74166666D02*
X176279819Y-74071428D01*
X176279819Y-74071428D02*
X176279819Y-73880952D01*
X176279819Y-73880952D02*
X176327438Y-73785714D01*
X176327438Y-73785714D02*
X176422676Y-73690476D01*
X176422676Y-73690476D02*
X176613152Y-73642857D01*
X176613152Y-73642857D02*
X176946485Y-73642857D01*
X176946485Y-73642857D02*
X177136961Y-73690476D01*
X177136961Y-73690476D02*
X177232200Y-73785714D01*
X177232200Y-73785714D02*
X177279819Y-73880952D01*
X177279819Y-73880952D02*
X177279819Y-74071428D01*
X177279819Y-72690476D02*
X177279819Y-73261904D01*
X177279819Y-72976190D02*
X176279819Y-72976190D01*
X176279819Y-72976190D02*
X176422676Y-73071428D01*
X176422676Y-73071428D02*
X176517914Y-73166666D01*
X176517914Y-73166666D02*
X176565533Y-73261904D01*
X157819524Y-53524819D02*
X157819524Y-52524819D01*
X157819524Y-52524819D02*
X158152857Y-53239104D01*
X158152857Y-53239104D02*
X158486190Y-52524819D01*
X158486190Y-52524819D02*
X158486190Y-53524819D01*
X159152857Y-52524819D02*
X159343333Y-52524819D01*
X159343333Y-52524819D02*
X159438571Y-52572438D01*
X159438571Y-52572438D02*
X159533809Y-52667676D01*
X159533809Y-52667676D02*
X159581428Y-52858152D01*
X159581428Y-52858152D02*
X159581428Y-53191485D01*
X159581428Y-53191485D02*
X159533809Y-53381961D01*
X159533809Y-53381961D02*
X159438571Y-53477200D01*
X159438571Y-53477200D02*
X159343333Y-53524819D01*
X159343333Y-53524819D02*
X159152857Y-53524819D01*
X159152857Y-53524819D02*
X159057619Y-53477200D01*
X159057619Y-53477200D02*
X158962381Y-53381961D01*
X158962381Y-53381961D02*
X158914762Y-53191485D01*
X158914762Y-53191485D02*
X158914762Y-52858152D01*
X158914762Y-52858152D02*
X158962381Y-52667676D01*
X158962381Y-52667676D02*
X159057619Y-52572438D01*
X159057619Y-52572438D02*
X159152857Y-52524819D01*
X159867143Y-52524819D02*
X160438571Y-52524819D01*
X160152857Y-53524819D02*
X160152857Y-52524819D01*
X160676667Y-52524819D02*
X161343333Y-52524819D01*
X161343333Y-52524819D02*
X160676667Y-53524819D01*
X160676667Y-53524819D02*
X161343333Y-53524819D01*
X162248095Y-53524819D02*
X161676667Y-53524819D01*
X161962381Y-53524819D02*
X161962381Y-52524819D01*
X161962381Y-52524819D02*
X161867143Y-52667676D01*
X161867143Y-52667676D02*
X161771905Y-52762914D01*
X161771905Y-52762914D02*
X161676667Y-52810533D01*
X112819524Y-53024819D02*
X112819524Y-52024819D01*
X112819524Y-52024819D02*
X113152857Y-52739104D01*
X113152857Y-52739104D02*
X113486190Y-52024819D01*
X113486190Y-52024819D02*
X113486190Y-53024819D01*
X114152857Y-52024819D02*
X114343333Y-52024819D01*
X114343333Y-52024819D02*
X114438571Y-52072438D01*
X114438571Y-52072438D02*
X114533809Y-52167676D01*
X114533809Y-52167676D02*
X114581428Y-52358152D01*
X114581428Y-52358152D02*
X114581428Y-52691485D01*
X114581428Y-52691485D02*
X114533809Y-52881961D01*
X114533809Y-52881961D02*
X114438571Y-52977200D01*
X114438571Y-52977200D02*
X114343333Y-53024819D01*
X114343333Y-53024819D02*
X114152857Y-53024819D01*
X114152857Y-53024819D02*
X114057619Y-52977200D01*
X114057619Y-52977200D02*
X113962381Y-52881961D01*
X113962381Y-52881961D02*
X113914762Y-52691485D01*
X113914762Y-52691485D02*
X113914762Y-52358152D01*
X113914762Y-52358152D02*
X113962381Y-52167676D01*
X113962381Y-52167676D02*
X114057619Y-52072438D01*
X114057619Y-52072438D02*
X114152857Y-52024819D01*
X114867143Y-52024819D02*
X115438571Y-52024819D01*
X115152857Y-53024819D02*
X115152857Y-52024819D01*
X115676667Y-52024819D02*
X116343333Y-53024819D01*
X116343333Y-52024819D02*
X115676667Y-53024819D01*
X117248095Y-53024819D02*
X116676667Y-53024819D01*
X116962381Y-53024819D02*
X116962381Y-52024819D01*
X116962381Y-52024819D02*
X116867143Y-52167676D01*
X116867143Y-52167676D02*
X116771905Y-52262914D01*
X116771905Y-52262914D02*
X116676667Y-52310533D01*
X147690476Y-57184819D02*
X147690476Y-57899104D01*
X147690476Y-57899104D02*
X147642857Y-58041961D01*
X147642857Y-58041961D02*
X147547619Y-58137200D01*
X147547619Y-58137200D02*
X147404762Y-58184819D01*
X147404762Y-58184819D02*
X147309524Y-58184819D01*
X148166667Y-58184819D02*
X148166667Y-57184819D01*
X148166667Y-57184819D02*
X148500000Y-57899104D01*
X148500000Y-57899104D02*
X148833333Y-57184819D01*
X148833333Y-57184819D02*
X148833333Y-58184819D01*
X149500000Y-57184819D02*
X149690476Y-57184819D01*
X149690476Y-57184819D02*
X149785714Y-57232438D01*
X149785714Y-57232438D02*
X149880952Y-57327676D01*
X149880952Y-57327676D02*
X149928571Y-57518152D01*
X149928571Y-57518152D02*
X149928571Y-57851485D01*
X149928571Y-57851485D02*
X149880952Y-58041961D01*
X149880952Y-58041961D02*
X149785714Y-58137200D01*
X149785714Y-58137200D02*
X149690476Y-58184819D01*
X149690476Y-58184819D02*
X149500000Y-58184819D01*
X149500000Y-58184819D02*
X149404762Y-58137200D01*
X149404762Y-58137200D02*
X149309524Y-58041961D01*
X149309524Y-58041961D02*
X149261905Y-57851485D01*
X149261905Y-57851485D02*
X149261905Y-57518152D01*
X149261905Y-57518152D02*
X149309524Y-57327676D01*
X149309524Y-57327676D02*
X149404762Y-57232438D01*
X149404762Y-57232438D02*
X149500000Y-57184819D01*
X150214286Y-57184819D02*
X150785714Y-57184819D01*
X150500000Y-58184819D02*
X150500000Y-57184819D01*
X151071429Y-57280057D02*
X151119048Y-57232438D01*
X151119048Y-57232438D02*
X151214286Y-57184819D01*
X151214286Y-57184819D02*
X151452381Y-57184819D01*
X151452381Y-57184819D02*
X151547619Y-57232438D01*
X151547619Y-57232438D02*
X151595238Y-57280057D01*
X151595238Y-57280057D02*
X151642857Y-57375295D01*
X151642857Y-57375295D02*
X151642857Y-57470533D01*
X151642857Y-57470533D02*
X151595238Y-57613390D01*
X151595238Y-57613390D02*
X151023810Y-58184819D01*
X151023810Y-58184819D02*
X151642857Y-58184819D01*
X101690476Y-56684819D02*
X101690476Y-57399104D01*
X101690476Y-57399104D02*
X101642857Y-57541961D01*
X101642857Y-57541961D02*
X101547619Y-57637200D01*
X101547619Y-57637200D02*
X101404762Y-57684819D01*
X101404762Y-57684819D02*
X101309524Y-57684819D01*
X102166667Y-57684819D02*
X102166667Y-56684819D01*
X102166667Y-56684819D02*
X102500000Y-57399104D01*
X102500000Y-57399104D02*
X102833333Y-56684819D01*
X102833333Y-56684819D02*
X102833333Y-57684819D01*
X103500000Y-56684819D02*
X103690476Y-56684819D01*
X103690476Y-56684819D02*
X103785714Y-56732438D01*
X103785714Y-56732438D02*
X103880952Y-56827676D01*
X103880952Y-56827676D02*
X103928571Y-57018152D01*
X103928571Y-57018152D02*
X103928571Y-57351485D01*
X103928571Y-57351485D02*
X103880952Y-57541961D01*
X103880952Y-57541961D02*
X103785714Y-57637200D01*
X103785714Y-57637200D02*
X103690476Y-57684819D01*
X103690476Y-57684819D02*
X103500000Y-57684819D01*
X103500000Y-57684819D02*
X103404762Y-57637200D01*
X103404762Y-57637200D02*
X103309524Y-57541961D01*
X103309524Y-57541961D02*
X103261905Y-57351485D01*
X103261905Y-57351485D02*
X103261905Y-57018152D01*
X103261905Y-57018152D02*
X103309524Y-56827676D01*
X103309524Y-56827676D02*
X103404762Y-56732438D01*
X103404762Y-56732438D02*
X103500000Y-56684819D01*
X104214286Y-56684819D02*
X104785714Y-56684819D01*
X104500000Y-57684819D02*
X104500000Y-56684819D01*
X105309524Y-56684819D02*
X105404762Y-56684819D01*
X105404762Y-56684819D02*
X105500000Y-56732438D01*
X105500000Y-56732438D02*
X105547619Y-56780057D01*
X105547619Y-56780057D02*
X105595238Y-56875295D01*
X105595238Y-56875295D02*
X105642857Y-57065771D01*
X105642857Y-57065771D02*
X105642857Y-57303866D01*
X105642857Y-57303866D02*
X105595238Y-57494342D01*
X105595238Y-57494342D02*
X105547619Y-57589580D01*
X105547619Y-57589580D02*
X105500000Y-57637200D01*
X105500000Y-57637200D02*
X105404762Y-57684819D01*
X105404762Y-57684819D02*
X105309524Y-57684819D01*
X105309524Y-57684819D02*
X105214286Y-57637200D01*
X105214286Y-57637200D02*
X105166667Y-57589580D01*
X105166667Y-57589580D02*
X105119048Y-57494342D01*
X105119048Y-57494342D02*
X105071429Y-57303866D01*
X105071429Y-57303866D02*
X105071429Y-57065771D01*
X105071429Y-57065771D02*
X105119048Y-56875295D01*
X105119048Y-56875295D02*
X105166667Y-56780057D01*
X105166667Y-56780057D02*
X105214286Y-56732438D01*
X105214286Y-56732438D02*
X105309524Y-56684819D01*
X125190476Y-57644819D02*
X125190476Y-58359104D01*
X125190476Y-58359104D02*
X125142857Y-58501961D01*
X125142857Y-58501961D02*
X125047619Y-58597200D01*
X125047619Y-58597200D02*
X124904762Y-58644819D01*
X124904762Y-58644819D02*
X124809524Y-58644819D01*
X125666667Y-58644819D02*
X125666667Y-57644819D01*
X125666667Y-57644819D02*
X126000000Y-58359104D01*
X126000000Y-58359104D02*
X126333333Y-57644819D01*
X126333333Y-57644819D02*
X126333333Y-58644819D01*
X127000000Y-57644819D02*
X127190476Y-57644819D01*
X127190476Y-57644819D02*
X127285714Y-57692438D01*
X127285714Y-57692438D02*
X127380952Y-57787676D01*
X127380952Y-57787676D02*
X127428571Y-57978152D01*
X127428571Y-57978152D02*
X127428571Y-58311485D01*
X127428571Y-58311485D02*
X127380952Y-58501961D01*
X127380952Y-58501961D02*
X127285714Y-58597200D01*
X127285714Y-58597200D02*
X127190476Y-58644819D01*
X127190476Y-58644819D02*
X127000000Y-58644819D01*
X127000000Y-58644819D02*
X126904762Y-58597200D01*
X126904762Y-58597200D02*
X126809524Y-58501961D01*
X126809524Y-58501961D02*
X126761905Y-58311485D01*
X126761905Y-58311485D02*
X126761905Y-57978152D01*
X126761905Y-57978152D02*
X126809524Y-57787676D01*
X126809524Y-57787676D02*
X126904762Y-57692438D01*
X126904762Y-57692438D02*
X127000000Y-57644819D01*
X127714286Y-57644819D02*
X128285714Y-57644819D01*
X128000000Y-58644819D02*
X128000000Y-57644819D01*
X129142857Y-58644819D02*
X128571429Y-58644819D01*
X128857143Y-58644819D02*
X128857143Y-57644819D01*
X128857143Y-57644819D02*
X128761905Y-57787676D01*
X128761905Y-57787676D02*
X128666667Y-57882914D01*
X128666667Y-57882914D02*
X128571429Y-57930533D01*
X150706190Y-80144819D02*
X150706190Y-80859104D01*
X150706190Y-80859104D02*
X150658571Y-81001961D01*
X150658571Y-81001961D02*
X150563333Y-81097200D01*
X150563333Y-81097200D02*
X150420476Y-81144819D01*
X150420476Y-81144819D02*
X150325238Y-81144819D01*
X151658571Y-81144819D02*
X151182381Y-81144819D01*
X151182381Y-81144819D02*
X151182381Y-80144819D01*
X151991905Y-81144819D02*
X151991905Y-80144819D01*
X152468095Y-81144819D02*
X152468095Y-80144819D01*
X152468095Y-80144819D02*
X152801428Y-80859104D01*
X152801428Y-80859104D02*
X153134761Y-80144819D01*
X153134761Y-80144819D02*
X153134761Y-81144819D01*
X153515714Y-80144819D02*
X154182380Y-80144819D01*
X154182380Y-80144819D02*
X153515714Y-81144819D01*
X153515714Y-81144819D02*
X154182380Y-81144819D01*
X155087142Y-81144819D02*
X154515714Y-81144819D01*
X154801428Y-81144819D02*
X154801428Y-80144819D01*
X154801428Y-80144819D02*
X154706190Y-80287676D01*
X154706190Y-80287676D02*
X154610952Y-80382914D01*
X154610952Y-80382914D02*
X154515714Y-80430533D01*
X143253809Y-80184819D02*
X143253809Y-80899104D01*
X143253809Y-80899104D02*
X143206190Y-81041961D01*
X143206190Y-81041961D02*
X143110952Y-81137200D01*
X143110952Y-81137200D02*
X142968095Y-81184819D01*
X142968095Y-81184819D02*
X142872857Y-81184819D01*
X144206190Y-81184819D02*
X143730000Y-81184819D01*
X143730000Y-81184819D02*
X143730000Y-80184819D01*
X144539524Y-81184819D02*
X144539524Y-80184819D01*
X145015714Y-81184819D02*
X145015714Y-80184819D01*
X145015714Y-80184819D02*
X145349047Y-80899104D01*
X145349047Y-80899104D02*
X145682380Y-80184819D01*
X145682380Y-80184819D02*
X145682380Y-81184819D01*
X146349047Y-80708628D02*
X146349047Y-81184819D01*
X146015714Y-80184819D02*
X146349047Y-80708628D01*
X146349047Y-80708628D02*
X146682380Y-80184819D01*
X147539523Y-81184819D02*
X146968095Y-81184819D01*
X147253809Y-81184819D02*
X147253809Y-80184819D01*
X147253809Y-80184819D02*
X147158571Y-80327676D01*
X147158571Y-80327676D02*
X147063333Y-80422914D01*
X147063333Y-80422914D02*
X146968095Y-80470533D01*
X181214819Y-85293333D02*
X181929104Y-85293333D01*
X181929104Y-85293333D02*
X182071961Y-85340952D01*
X182071961Y-85340952D02*
X182167200Y-85436190D01*
X182167200Y-85436190D02*
X182214819Y-85579047D01*
X182214819Y-85579047D02*
X182214819Y-85674285D01*
X181214819Y-84340952D02*
X181214819Y-84817142D01*
X181214819Y-84817142D02*
X181691009Y-84864761D01*
X181691009Y-84864761D02*
X181643390Y-84817142D01*
X181643390Y-84817142D02*
X181595771Y-84721904D01*
X181595771Y-84721904D02*
X181595771Y-84483809D01*
X181595771Y-84483809D02*
X181643390Y-84388571D01*
X181643390Y-84388571D02*
X181691009Y-84340952D01*
X181691009Y-84340952D02*
X181786247Y-84293333D01*
X181786247Y-84293333D02*
X182024342Y-84293333D01*
X182024342Y-84293333D02*
X182119580Y-84340952D01*
X182119580Y-84340952D02*
X182167200Y-84388571D01*
X182167200Y-84388571D02*
X182214819Y-84483809D01*
X182214819Y-84483809D02*
X182214819Y-84721904D01*
X182214819Y-84721904D02*
X182167200Y-84817142D01*
X182167200Y-84817142D02*
X182119580Y-84864761D01*
X136367143Y-53524819D02*
X136367143Y-52524819D01*
X136367143Y-52524819D02*
X136700476Y-53239104D01*
X136700476Y-53239104D02*
X137033809Y-52524819D01*
X137033809Y-52524819D02*
X137033809Y-53524819D01*
X137700476Y-52524819D02*
X137890952Y-52524819D01*
X137890952Y-52524819D02*
X137986190Y-52572438D01*
X137986190Y-52572438D02*
X138081428Y-52667676D01*
X138081428Y-52667676D02*
X138129047Y-52858152D01*
X138129047Y-52858152D02*
X138129047Y-53191485D01*
X138129047Y-53191485D02*
X138081428Y-53381961D01*
X138081428Y-53381961D02*
X137986190Y-53477200D01*
X137986190Y-53477200D02*
X137890952Y-53524819D01*
X137890952Y-53524819D02*
X137700476Y-53524819D01*
X137700476Y-53524819D02*
X137605238Y-53477200D01*
X137605238Y-53477200D02*
X137510000Y-53381961D01*
X137510000Y-53381961D02*
X137462381Y-53191485D01*
X137462381Y-53191485D02*
X137462381Y-52858152D01*
X137462381Y-52858152D02*
X137510000Y-52667676D01*
X137510000Y-52667676D02*
X137605238Y-52572438D01*
X137605238Y-52572438D02*
X137700476Y-52524819D01*
X138414762Y-52524819D02*
X138986190Y-52524819D01*
X138700476Y-53524819D02*
X138700476Y-52524819D01*
X139510000Y-53048628D02*
X139510000Y-53524819D01*
X139176667Y-52524819D02*
X139510000Y-53048628D01*
X139510000Y-53048628D02*
X139843333Y-52524819D01*
X140700476Y-53524819D02*
X140129048Y-53524819D01*
X140414762Y-53524819D02*
X140414762Y-52524819D01*
X140414762Y-52524819D02*
X140319524Y-52667676D01*
X140319524Y-52667676D02*
X140224286Y-52762914D01*
X140224286Y-52762914D02*
X140129048Y-52810533D01*
X174763095Y-43434819D02*
X174763095Y-44149104D01*
X174763095Y-44149104D02*
X174715476Y-44291961D01*
X174715476Y-44291961D02*
X174620238Y-44387200D01*
X174620238Y-44387200D02*
X174477381Y-44434819D01*
X174477381Y-44434819D02*
X174382143Y-44434819D01*
X175429762Y-43434819D02*
X175620238Y-43434819D01*
X175620238Y-43434819D02*
X175715476Y-43482438D01*
X175715476Y-43482438D02*
X175810714Y-43577676D01*
X175810714Y-43577676D02*
X175858333Y-43768152D01*
X175858333Y-43768152D02*
X175858333Y-44101485D01*
X175858333Y-44101485D02*
X175810714Y-44291961D01*
X175810714Y-44291961D02*
X175715476Y-44387200D01*
X175715476Y-44387200D02*
X175620238Y-44434819D01*
X175620238Y-44434819D02*
X175429762Y-44434819D01*
X175429762Y-44434819D02*
X175334524Y-44387200D01*
X175334524Y-44387200D02*
X175239286Y-44291961D01*
X175239286Y-44291961D02*
X175191667Y-44101485D01*
X175191667Y-44101485D02*
X175191667Y-43768152D01*
X175191667Y-43768152D02*
X175239286Y-43577676D01*
X175239286Y-43577676D02*
X175334524Y-43482438D01*
X175334524Y-43482438D02*
X175429762Y-43434819D01*
X176286905Y-43434819D02*
X176286905Y-44244342D01*
X176286905Y-44244342D02*
X176334524Y-44339580D01*
X176334524Y-44339580D02*
X176382143Y-44387200D01*
X176382143Y-44387200D02*
X176477381Y-44434819D01*
X176477381Y-44434819D02*
X176667857Y-44434819D01*
X176667857Y-44434819D02*
X176763095Y-44387200D01*
X176763095Y-44387200D02*
X176810714Y-44339580D01*
X176810714Y-44339580D02*
X176858333Y-44244342D01*
X176858333Y-44244342D02*
X176858333Y-43434819D01*
X177191667Y-43434819D02*
X177763095Y-43434819D01*
X177477381Y-44434819D02*
X177477381Y-43434819D01*
X178620238Y-44434819D02*
X178048810Y-44434819D01*
X178334524Y-44434819D02*
X178334524Y-43434819D01*
X178334524Y-43434819D02*
X178239286Y-43577676D01*
X178239286Y-43577676D02*
X178144048Y-43672914D01*
X178144048Y-43672914D02*
X178048810Y-43720533D01*
X135706190Y-80144819D02*
X135706190Y-80859104D01*
X135706190Y-80859104D02*
X135658571Y-81001961D01*
X135658571Y-81001961D02*
X135563333Y-81097200D01*
X135563333Y-81097200D02*
X135420476Y-81144819D01*
X135420476Y-81144819D02*
X135325238Y-81144819D01*
X136658571Y-81144819D02*
X136182381Y-81144819D01*
X136182381Y-81144819D02*
X136182381Y-80144819D01*
X136991905Y-81144819D02*
X136991905Y-80144819D01*
X137468095Y-81144819D02*
X137468095Y-80144819D01*
X137468095Y-80144819D02*
X137801428Y-80859104D01*
X137801428Y-80859104D02*
X138134761Y-80144819D01*
X138134761Y-80144819D02*
X138134761Y-81144819D01*
X138515714Y-80144819D02*
X139182380Y-81144819D01*
X139182380Y-80144819D02*
X138515714Y-81144819D01*
X140087142Y-81144819D02*
X139515714Y-81144819D01*
X139801428Y-81144819D02*
X139801428Y-80144819D01*
X139801428Y-80144819D02*
X139706190Y-80287676D01*
X139706190Y-80287676D02*
X139610952Y-80382914D01*
X139610952Y-80382914D02*
X139515714Y-80430533D01*
X176734819Y-71666666D02*
X176258628Y-71999999D01*
X176734819Y-72238094D02*
X175734819Y-72238094D01*
X175734819Y-72238094D02*
X175734819Y-71857142D01*
X175734819Y-71857142D02*
X175782438Y-71761904D01*
X175782438Y-71761904D02*
X175830057Y-71714285D01*
X175830057Y-71714285D02*
X175925295Y-71666666D01*
X175925295Y-71666666D02*
X176068152Y-71666666D01*
X176068152Y-71666666D02*
X176163390Y-71714285D01*
X176163390Y-71714285D02*
X176211009Y-71761904D01*
X176211009Y-71761904D02*
X176258628Y-71857142D01*
X176258628Y-71857142D02*
X176258628Y-72238094D01*
X176068152Y-70809523D02*
X176734819Y-70809523D01*
X175687200Y-71047618D02*
X176401485Y-71285713D01*
X176401485Y-71285713D02*
X176401485Y-70666666D01*
D11*
%TO.C,C3*%
X130315000Y-86990302D02*
X130315000Y-87790302D01*
X130715000Y-87390302D02*
X129915000Y-87390302D01*
X132080000Y-91400000D02*
X123920000Y-91400000D01*
X132080000Y-91440000D02*
X123920000Y-91440000D01*
X132080000Y-91480000D02*
X123920000Y-91480000D01*
X132079000Y-91520000D02*
X123921000Y-91520000D01*
X132077000Y-91560000D02*
X123923000Y-91560000D01*
X132076000Y-91600000D02*
X123924000Y-91600000D01*
X132074000Y-91640000D02*
X123926000Y-91640000D01*
X132071000Y-91680000D02*
X123929000Y-91680000D01*
X132068000Y-91720000D02*
X123932000Y-91720000D01*
X132065000Y-91760000D02*
X123935000Y-91760000D01*
X132061000Y-91800000D02*
X123939000Y-91800000D01*
X132057000Y-91840000D02*
X123943000Y-91840000D01*
X132052000Y-91880000D02*
X123948000Y-91880000D01*
X132048000Y-91920000D02*
X123952000Y-91920000D01*
X132042000Y-91960000D02*
X123958000Y-91960000D01*
X132037000Y-92000000D02*
X123963000Y-92000000D01*
X132030000Y-92040000D02*
X123970000Y-92040000D01*
X132024000Y-92080000D02*
X123976000Y-92080000D01*
X132017000Y-92121000D02*
X123983000Y-92121000D01*
X132010000Y-92161000D02*
X123990000Y-92161000D01*
X132002000Y-92201000D02*
X123998000Y-92201000D01*
X131994000Y-92241000D02*
X124006000Y-92241000D01*
X131985000Y-92281000D02*
X129040000Y-92281000D01*
X126960000Y-92281000D02*
X124015000Y-92281000D01*
X131976000Y-92321000D02*
X129040000Y-92321000D01*
X126960000Y-92321000D02*
X124024000Y-92321000D01*
X131967000Y-92361000D02*
X129040000Y-92361000D01*
X126960000Y-92361000D02*
X124033000Y-92361000D01*
X131957000Y-92401000D02*
X129040000Y-92401000D01*
X126960000Y-92401000D02*
X124043000Y-92401000D01*
X131947000Y-92441000D02*
X129040000Y-92441000D01*
X126960000Y-92441000D02*
X124053000Y-92441000D01*
X131936000Y-92481000D02*
X129040000Y-92481000D01*
X126960000Y-92481000D02*
X124064000Y-92481000D01*
X131925000Y-92521000D02*
X129040000Y-92521000D01*
X126960000Y-92521000D02*
X124075000Y-92521000D01*
X131914000Y-92561000D02*
X129040000Y-92561000D01*
X126960000Y-92561000D02*
X124086000Y-92561000D01*
X131902000Y-92601000D02*
X129040000Y-92601000D01*
X126960000Y-92601000D02*
X124098000Y-92601000D01*
X131889000Y-92641000D02*
X129040000Y-92641000D01*
X126960000Y-92641000D02*
X124111000Y-92641000D01*
X131877000Y-92681000D02*
X129040000Y-92681000D01*
X126960000Y-92681000D02*
X124123000Y-92681000D01*
X131863000Y-92721000D02*
X129040000Y-92721000D01*
X126960000Y-92721000D02*
X124137000Y-92721000D01*
X131850000Y-92761000D02*
X129040000Y-92761000D01*
X126960000Y-92761000D02*
X124150000Y-92761000D01*
X131835000Y-92801000D02*
X129040000Y-92801000D01*
X126960000Y-92801000D02*
X124165000Y-92801000D01*
X131821000Y-92841000D02*
X129040000Y-92841000D01*
X126960000Y-92841000D02*
X124179000Y-92841000D01*
X131805000Y-92881000D02*
X129040000Y-92881000D01*
X126960000Y-92881000D02*
X124195000Y-92881000D01*
X131790000Y-92921000D02*
X129040000Y-92921000D01*
X126960000Y-92921000D02*
X124210000Y-92921000D01*
X131774000Y-92961000D02*
X129040000Y-92961000D01*
X126960000Y-92961000D02*
X124226000Y-92961000D01*
X131757000Y-93001000D02*
X129040000Y-93001000D01*
X126960000Y-93001000D02*
X124243000Y-93001000D01*
X131740000Y-93041000D02*
X129040000Y-93041000D01*
X126960000Y-93041000D02*
X124260000Y-93041000D01*
X131722000Y-93081000D02*
X129040000Y-93081000D01*
X126960000Y-93081000D02*
X124278000Y-93081000D01*
X131704000Y-93121000D02*
X129040000Y-93121000D01*
X126960000Y-93121000D02*
X124296000Y-93121000D01*
X131686000Y-93161000D02*
X129040000Y-93161000D01*
X126960000Y-93161000D02*
X124314000Y-93161000D01*
X131666000Y-93201000D02*
X129040000Y-93201000D01*
X126960000Y-93201000D02*
X124334000Y-93201000D01*
X131647000Y-93241000D02*
X129040000Y-93241000D01*
X126960000Y-93241000D02*
X124353000Y-93241000D01*
X131627000Y-93281000D02*
X129040000Y-93281000D01*
X126960000Y-93281000D02*
X124373000Y-93281000D01*
X131606000Y-93321000D02*
X129040000Y-93321000D01*
X126960000Y-93321000D02*
X124394000Y-93321000D01*
X131584000Y-93361000D02*
X129040000Y-93361000D01*
X126960000Y-93361000D02*
X124416000Y-93361000D01*
X131562000Y-93401000D02*
X129040000Y-93401000D01*
X126960000Y-93401000D02*
X124438000Y-93401000D01*
X131540000Y-93441000D02*
X129040000Y-93441000D01*
X126960000Y-93441000D02*
X124460000Y-93441000D01*
X131517000Y-93481000D02*
X129040000Y-93481000D01*
X126960000Y-93481000D02*
X124483000Y-93481000D01*
X131493000Y-93521000D02*
X129040000Y-93521000D01*
X126960000Y-93521000D02*
X124507000Y-93521000D01*
X131469000Y-93561000D02*
X129040000Y-93561000D01*
X126960000Y-93561000D02*
X124531000Y-93561000D01*
X131444000Y-93601000D02*
X129040000Y-93601000D01*
X126960000Y-93601000D02*
X124556000Y-93601000D01*
X131418000Y-93641000D02*
X129040000Y-93641000D01*
X126960000Y-93641000D02*
X124582000Y-93641000D01*
X131392000Y-93681000D02*
X129040000Y-93681000D01*
X126960000Y-93681000D02*
X124608000Y-93681000D01*
X131365000Y-93721000D02*
X129040000Y-93721000D01*
X126960000Y-93721000D02*
X124635000Y-93721000D01*
X131338000Y-93761000D02*
X129040000Y-93761000D01*
X126960000Y-93761000D02*
X124662000Y-93761000D01*
X131309000Y-93801000D02*
X129040000Y-93801000D01*
X126960000Y-93801000D02*
X124691000Y-93801000D01*
X131280000Y-93841000D02*
X129040000Y-93841000D01*
X126960000Y-93841000D02*
X124720000Y-93841000D01*
X131250000Y-93881000D02*
X129040000Y-93881000D01*
X126960000Y-93881000D02*
X124750000Y-93881000D01*
X131220000Y-93921000D02*
X129040000Y-93921000D01*
X126960000Y-93921000D02*
X124780000Y-93921000D01*
X131189000Y-93961000D02*
X129040000Y-93961000D01*
X126960000Y-93961000D02*
X124811000Y-93961000D01*
X131156000Y-94001000D02*
X129040000Y-94001000D01*
X126960000Y-94001000D02*
X124844000Y-94001000D01*
X131124000Y-94041000D02*
X129040000Y-94041000D01*
X126960000Y-94041000D02*
X124876000Y-94041000D01*
X131090000Y-94081000D02*
X129040000Y-94081000D01*
X126960000Y-94081000D02*
X124910000Y-94081000D01*
X131055000Y-94121000D02*
X129040000Y-94121000D01*
X126960000Y-94121000D02*
X124945000Y-94121000D01*
X131019000Y-94161000D02*
X129040000Y-94161000D01*
X126960000Y-94161000D02*
X124981000Y-94161000D01*
X130983000Y-94201000D02*
X129040000Y-94201000D01*
X126960000Y-94201000D02*
X125017000Y-94201000D01*
X130945000Y-94241000D02*
X129040000Y-94241000D01*
X126960000Y-94241000D02*
X125055000Y-94241000D01*
X130907000Y-94281000D02*
X129040000Y-94281000D01*
X126960000Y-94281000D02*
X125093000Y-94281000D01*
X130867000Y-94321000D02*
X129040000Y-94321000D01*
X126960000Y-94321000D02*
X125133000Y-94321000D01*
X130826000Y-94361000D02*
X125174000Y-94361000D01*
X130784000Y-94401000D02*
X125216000Y-94401000D01*
X130741000Y-94441000D02*
X125259000Y-94441000D01*
X130697000Y-94481000D02*
X125303000Y-94481000D01*
X130651000Y-94521000D02*
X125349000Y-94521000D01*
X130604000Y-94561000D02*
X125396000Y-94561000D01*
X130556000Y-94601000D02*
X125444000Y-94601000D01*
X130505000Y-94641000D02*
X125495000Y-94641000D01*
X130454000Y-94681000D02*
X125546000Y-94681000D01*
X130400000Y-94721000D02*
X125600000Y-94721000D01*
X130345000Y-94761000D02*
X125655000Y-94761000D01*
X130287000Y-94801000D02*
X125713000Y-94801000D01*
X130228000Y-94841000D02*
X125772000Y-94841000D01*
X130166000Y-94881000D02*
X125834000Y-94881000D01*
X130102000Y-94921000D02*
X125898000Y-94921000D01*
X130034000Y-94961000D02*
X125966000Y-94961000D01*
X129964000Y-95001000D02*
X126036000Y-95001000D01*
X129890000Y-95041000D02*
X126110000Y-95041000D01*
X129813000Y-95081000D02*
X126187000Y-95081000D01*
X129731000Y-95121000D02*
X126269000Y-95121000D01*
X129645000Y-95161000D02*
X126355000Y-95161000D01*
X129552000Y-95201000D02*
X126448000Y-95201000D01*
X129453000Y-95241000D02*
X126547000Y-95241000D01*
X129346000Y-95281000D02*
X126654000Y-95281000D01*
X129229000Y-95321000D02*
X126771000Y-95321000D01*
X129098000Y-95361000D02*
X126902000Y-95361000D01*
X128948000Y-95401000D02*
X127052000Y-95401000D01*
X128768000Y-95441000D02*
X127232000Y-95441000D01*
X128533000Y-95481000D02*
X127467000Y-95481000D01*
X132120000Y-91400000D02*
G75*
G02*
X123880000Y-91400000I-4120000J0D01*
G01*
X123880000Y-91400000D02*
G75*
G02*
X132120000Y-91400000I4120000J0D01*
G01*
%TO.C,C2*%
X120815000Y-86990302D02*
X120815000Y-87790302D01*
X121215000Y-87390302D02*
X120415000Y-87390302D01*
X122580000Y-91400000D02*
X114420000Y-91400000D01*
X122580000Y-91440000D02*
X114420000Y-91440000D01*
X122580000Y-91480000D02*
X114420000Y-91480000D01*
X122579000Y-91520000D02*
X114421000Y-91520000D01*
X122577000Y-91560000D02*
X114423000Y-91560000D01*
X122576000Y-91600000D02*
X114424000Y-91600000D01*
X122574000Y-91640000D02*
X114426000Y-91640000D01*
X122571000Y-91680000D02*
X114429000Y-91680000D01*
X122568000Y-91720000D02*
X114432000Y-91720000D01*
X122565000Y-91760000D02*
X114435000Y-91760000D01*
X122561000Y-91800000D02*
X114439000Y-91800000D01*
X122557000Y-91840000D02*
X114443000Y-91840000D01*
X122552000Y-91880000D02*
X114448000Y-91880000D01*
X122548000Y-91920000D02*
X114452000Y-91920000D01*
X122542000Y-91960000D02*
X114458000Y-91960000D01*
X122537000Y-92000000D02*
X114463000Y-92000000D01*
X122530000Y-92040000D02*
X114470000Y-92040000D01*
X122524000Y-92080000D02*
X114476000Y-92080000D01*
X122517000Y-92121000D02*
X114483000Y-92121000D01*
X122510000Y-92161000D02*
X114490000Y-92161000D01*
X122502000Y-92201000D02*
X114498000Y-92201000D01*
X122494000Y-92241000D02*
X114506000Y-92241000D01*
X122485000Y-92281000D02*
X119540000Y-92281000D01*
X117460000Y-92281000D02*
X114515000Y-92281000D01*
X122476000Y-92321000D02*
X119540000Y-92321000D01*
X117460000Y-92321000D02*
X114524000Y-92321000D01*
X122467000Y-92361000D02*
X119540000Y-92361000D01*
X117460000Y-92361000D02*
X114533000Y-92361000D01*
X122457000Y-92401000D02*
X119540000Y-92401000D01*
X117460000Y-92401000D02*
X114543000Y-92401000D01*
X122447000Y-92441000D02*
X119540000Y-92441000D01*
X117460000Y-92441000D02*
X114553000Y-92441000D01*
X122436000Y-92481000D02*
X119540000Y-92481000D01*
X117460000Y-92481000D02*
X114564000Y-92481000D01*
X122425000Y-92521000D02*
X119540000Y-92521000D01*
X117460000Y-92521000D02*
X114575000Y-92521000D01*
X122414000Y-92561000D02*
X119540000Y-92561000D01*
X117460000Y-92561000D02*
X114586000Y-92561000D01*
X122402000Y-92601000D02*
X119540000Y-92601000D01*
X117460000Y-92601000D02*
X114598000Y-92601000D01*
X122389000Y-92641000D02*
X119540000Y-92641000D01*
X117460000Y-92641000D02*
X114611000Y-92641000D01*
X122377000Y-92681000D02*
X119540000Y-92681000D01*
X117460000Y-92681000D02*
X114623000Y-92681000D01*
X122363000Y-92721000D02*
X119540000Y-92721000D01*
X117460000Y-92721000D02*
X114637000Y-92721000D01*
X122350000Y-92761000D02*
X119540000Y-92761000D01*
X117460000Y-92761000D02*
X114650000Y-92761000D01*
X122335000Y-92801000D02*
X119540000Y-92801000D01*
X117460000Y-92801000D02*
X114665000Y-92801000D01*
X122321000Y-92841000D02*
X119540000Y-92841000D01*
X117460000Y-92841000D02*
X114679000Y-92841000D01*
X122305000Y-92881000D02*
X119540000Y-92881000D01*
X117460000Y-92881000D02*
X114695000Y-92881000D01*
X122290000Y-92921000D02*
X119540000Y-92921000D01*
X117460000Y-92921000D02*
X114710000Y-92921000D01*
X122274000Y-92961000D02*
X119540000Y-92961000D01*
X117460000Y-92961000D02*
X114726000Y-92961000D01*
X122257000Y-93001000D02*
X119540000Y-93001000D01*
X117460000Y-93001000D02*
X114743000Y-93001000D01*
X122240000Y-93041000D02*
X119540000Y-93041000D01*
X117460000Y-93041000D02*
X114760000Y-93041000D01*
X122222000Y-93081000D02*
X119540000Y-93081000D01*
X117460000Y-93081000D02*
X114778000Y-93081000D01*
X122204000Y-93121000D02*
X119540000Y-93121000D01*
X117460000Y-93121000D02*
X114796000Y-93121000D01*
X122186000Y-93161000D02*
X119540000Y-93161000D01*
X117460000Y-93161000D02*
X114814000Y-93161000D01*
X122166000Y-93201000D02*
X119540000Y-93201000D01*
X117460000Y-93201000D02*
X114834000Y-93201000D01*
X122147000Y-93241000D02*
X119540000Y-93241000D01*
X117460000Y-93241000D02*
X114853000Y-93241000D01*
X122127000Y-93281000D02*
X119540000Y-93281000D01*
X117460000Y-93281000D02*
X114873000Y-93281000D01*
X122106000Y-93321000D02*
X119540000Y-93321000D01*
X117460000Y-93321000D02*
X114894000Y-93321000D01*
X122084000Y-93361000D02*
X119540000Y-93361000D01*
X117460000Y-93361000D02*
X114916000Y-93361000D01*
X122062000Y-93401000D02*
X119540000Y-93401000D01*
X117460000Y-93401000D02*
X114938000Y-93401000D01*
X122040000Y-93441000D02*
X119540000Y-93441000D01*
X117460000Y-93441000D02*
X114960000Y-93441000D01*
X122017000Y-93481000D02*
X119540000Y-93481000D01*
X117460000Y-93481000D02*
X114983000Y-93481000D01*
X121993000Y-93521000D02*
X119540000Y-93521000D01*
X117460000Y-93521000D02*
X115007000Y-93521000D01*
X121969000Y-93561000D02*
X119540000Y-93561000D01*
X117460000Y-93561000D02*
X115031000Y-93561000D01*
X121944000Y-93601000D02*
X119540000Y-93601000D01*
X117460000Y-93601000D02*
X115056000Y-93601000D01*
X121918000Y-93641000D02*
X119540000Y-93641000D01*
X117460000Y-93641000D02*
X115082000Y-93641000D01*
X121892000Y-93681000D02*
X119540000Y-93681000D01*
X117460000Y-93681000D02*
X115108000Y-93681000D01*
X121865000Y-93721000D02*
X119540000Y-93721000D01*
X117460000Y-93721000D02*
X115135000Y-93721000D01*
X121838000Y-93761000D02*
X119540000Y-93761000D01*
X117460000Y-93761000D02*
X115162000Y-93761000D01*
X121809000Y-93801000D02*
X119540000Y-93801000D01*
X117460000Y-93801000D02*
X115191000Y-93801000D01*
X121780000Y-93841000D02*
X119540000Y-93841000D01*
X117460000Y-93841000D02*
X115220000Y-93841000D01*
X121750000Y-93881000D02*
X119540000Y-93881000D01*
X117460000Y-93881000D02*
X115250000Y-93881000D01*
X121720000Y-93921000D02*
X119540000Y-93921000D01*
X117460000Y-93921000D02*
X115280000Y-93921000D01*
X121689000Y-93961000D02*
X119540000Y-93961000D01*
X117460000Y-93961000D02*
X115311000Y-93961000D01*
X121656000Y-94001000D02*
X119540000Y-94001000D01*
X117460000Y-94001000D02*
X115344000Y-94001000D01*
X121624000Y-94041000D02*
X119540000Y-94041000D01*
X117460000Y-94041000D02*
X115376000Y-94041000D01*
X121590000Y-94081000D02*
X119540000Y-94081000D01*
X117460000Y-94081000D02*
X115410000Y-94081000D01*
X121555000Y-94121000D02*
X119540000Y-94121000D01*
X117460000Y-94121000D02*
X115445000Y-94121000D01*
X121519000Y-94161000D02*
X119540000Y-94161000D01*
X117460000Y-94161000D02*
X115481000Y-94161000D01*
X121483000Y-94201000D02*
X119540000Y-94201000D01*
X117460000Y-94201000D02*
X115517000Y-94201000D01*
X121445000Y-94241000D02*
X119540000Y-94241000D01*
X117460000Y-94241000D02*
X115555000Y-94241000D01*
X121407000Y-94281000D02*
X119540000Y-94281000D01*
X117460000Y-94281000D02*
X115593000Y-94281000D01*
X121367000Y-94321000D02*
X119540000Y-94321000D01*
X117460000Y-94321000D02*
X115633000Y-94321000D01*
X121326000Y-94361000D02*
X115674000Y-94361000D01*
X121284000Y-94401000D02*
X115716000Y-94401000D01*
X121241000Y-94441000D02*
X115759000Y-94441000D01*
X121197000Y-94481000D02*
X115803000Y-94481000D01*
X121151000Y-94521000D02*
X115849000Y-94521000D01*
X121104000Y-94561000D02*
X115896000Y-94561000D01*
X121056000Y-94601000D02*
X115944000Y-94601000D01*
X121005000Y-94641000D02*
X115995000Y-94641000D01*
X120954000Y-94681000D02*
X116046000Y-94681000D01*
X120900000Y-94721000D02*
X116100000Y-94721000D01*
X120845000Y-94761000D02*
X116155000Y-94761000D01*
X120787000Y-94801000D02*
X116213000Y-94801000D01*
X120728000Y-94841000D02*
X116272000Y-94841000D01*
X120666000Y-94881000D02*
X116334000Y-94881000D01*
X120602000Y-94921000D02*
X116398000Y-94921000D01*
X120534000Y-94961000D02*
X116466000Y-94961000D01*
X120464000Y-95001000D02*
X116536000Y-95001000D01*
X120390000Y-95041000D02*
X116610000Y-95041000D01*
X120313000Y-95081000D02*
X116687000Y-95081000D01*
X120231000Y-95121000D02*
X116769000Y-95121000D01*
X120145000Y-95161000D02*
X116855000Y-95161000D01*
X120052000Y-95201000D02*
X116948000Y-95201000D01*
X119953000Y-95241000D02*
X117047000Y-95241000D01*
X119846000Y-95281000D02*
X117154000Y-95281000D01*
X119729000Y-95321000D02*
X117271000Y-95321000D01*
X119598000Y-95361000D02*
X117402000Y-95361000D01*
X119448000Y-95401000D02*
X117552000Y-95401000D01*
X119268000Y-95441000D02*
X117732000Y-95441000D01*
X119033000Y-95481000D02*
X117967000Y-95481000D01*
X122620000Y-91400000D02*
G75*
G02*
X114380000Y-91400000I-4120000J0D01*
G01*
X114380000Y-91400000D02*
G75*
G02*
X122620000Y-91400000I4120000J0D01*
G01*
%TO.C,C1*%
X111815000Y-87187651D02*
X111815000Y-87987651D01*
X112215000Y-87587651D02*
X111415000Y-87587651D01*
X113580000Y-91597349D02*
X105420000Y-91597349D01*
X113580000Y-91637349D02*
X105420000Y-91637349D01*
X113580000Y-91677349D02*
X105420000Y-91677349D01*
X113579000Y-91717349D02*
X105421000Y-91717349D01*
X113577000Y-91757349D02*
X105423000Y-91757349D01*
X113576000Y-91797349D02*
X105424000Y-91797349D01*
X113574000Y-91837349D02*
X105426000Y-91837349D01*
X113571000Y-91877349D02*
X105429000Y-91877349D01*
X113568000Y-91917349D02*
X105432000Y-91917349D01*
X113565000Y-91957349D02*
X105435000Y-91957349D01*
X113561000Y-91997349D02*
X105439000Y-91997349D01*
X113557000Y-92037349D02*
X105443000Y-92037349D01*
X113552000Y-92077349D02*
X105448000Y-92077349D01*
X113548000Y-92117349D02*
X105452000Y-92117349D01*
X113542000Y-92157349D02*
X105458000Y-92157349D01*
X113537000Y-92197349D02*
X105463000Y-92197349D01*
X113530000Y-92237349D02*
X105470000Y-92237349D01*
X113524000Y-92277349D02*
X105476000Y-92277349D01*
X113517000Y-92318349D02*
X105483000Y-92318349D01*
X113510000Y-92358349D02*
X105490000Y-92358349D01*
X113502000Y-92398349D02*
X105498000Y-92398349D01*
X113494000Y-92438349D02*
X105506000Y-92438349D01*
X113485000Y-92478349D02*
X110540000Y-92478349D01*
X108460000Y-92478349D02*
X105515000Y-92478349D01*
X113476000Y-92518349D02*
X110540000Y-92518349D01*
X108460000Y-92518349D02*
X105524000Y-92518349D01*
X113467000Y-92558349D02*
X110540000Y-92558349D01*
X108460000Y-92558349D02*
X105533000Y-92558349D01*
X113457000Y-92598349D02*
X110540000Y-92598349D01*
X108460000Y-92598349D02*
X105543000Y-92598349D01*
X113447000Y-92638349D02*
X110540000Y-92638349D01*
X108460000Y-92638349D02*
X105553000Y-92638349D01*
X113436000Y-92678349D02*
X110540000Y-92678349D01*
X108460000Y-92678349D02*
X105564000Y-92678349D01*
X113425000Y-92718349D02*
X110540000Y-92718349D01*
X108460000Y-92718349D02*
X105575000Y-92718349D01*
X113414000Y-92758349D02*
X110540000Y-92758349D01*
X108460000Y-92758349D02*
X105586000Y-92758349D01*
X113402000Y-92798349D02*
X110540000Y-92798349D01*
X108460000Y-92798349D02*
X105598000Y-92798349D01*
X113389000Y-92838349D02*
X110540000Y-92838349D01*
X108460000Y-92838349D02*
X105611000Y-92838349D01*
X113377000Y-92878349D02*
X110540000Y-92878349D01*
X108460000Y-92878349D02*
X105623000Y-92878349D01*
X113363000Y-92918349D02*
X110540000Y-92918349D01*
X108460000Y-92918349D02*
X105637000Y-92918349D01*
X113350000Y-92958349D02*
X110540000Y-92958349D01*
X108460000Y-92958349D02*
X105650000Y-92958349D01*
X113335000Y-92998349D02*
X110540000Y-92998349D01*
X108460000Y-92998349D02*
X105665000Y-92998349D01*
X113321000Y-93038349D02*
X110540000Y-93038349D01*
X108460000Y-93038349D02*
X105679000Y-93038349D01*
X113305000Y-93078349D02*
X110540000Y-93078349D01*
X108460000Y-93078349D02*
X105695000Y-93078349D01*
X113290000Y-93118349D02*
X110540000Y-93118349D01*
X108460000Y-93118349D02*
X105710000Y-93118349D01*
X113274000Y-93158349D02*
X110540000Y-93158349D01*
X108460000Y-93158349D02*
X105726000Y-93158349D01*
X113257000Y-93198349D02*
X110540000Y-93198349D01*
X108460000Y-93198349D02*
X105743000Y-93198349D01*
X113240000Y-93238349D02*
X110540000Y-93238349D01*
X108460000Y-93238349D02*
X105760000Y-93238349D01*
X113222000Y-93278349D02*
X110540000Y-93278349D01*
X108460000Y-93278349D02*
X105778000Y-93278349D01*
X113204000Y-93318349D02*
X110540000Y-93318349D01*
X108460000Y-93318349D02*
X105796000Y-93318349D01*
X113186000Y-93358349D02*
X110540000Y-93358349D01*
X108460000Y-93358349D02*
X105814000Y-93358349D01*
X113166000Y-93398349D02*
X110540000Y-93398349D01*
X108460000Y-93398349D02*
X105834000Y-93398349D01*
X113147000Y-93438349D02*
X110540000Y-93438349D01*
X108460000Y-93438349D02*
X105853000Y-93438349D01*
X113127000Y-93478349D02*
X110540000Y-93478349D01*
X108460000Y-93478349D02*
X105873000Y-93478349D01*
X113106000Y-93518349D02*
X110540000Y-93518349D01*
X108460000Y-93518349D02*
X105894000Y-93518349D01*
X113084000Y-93558349D02*
X110540000Y-93558349D01*
X108460000Y-93558349D02*
X105916000Y-93558349D01*
X113062000Y-93598349D02*
X110540000Y-93598349D01*
X108460000Y-93598349D02*
X105938000Y-93598349D01*
X113040000Y-93638349D02*
X110540000Y-93638349D01*
X108460000Y-93638349D02*
X105960000Y-93638349D01*
X113017000Y-93678349D02*
X110540000Y-93678349D01*
X108460000Y-93678349D02*
X105983000Y-93678349D01*
X112993000Y-93718349D02*
X110540000Y-93718349D01*
X108460000Y-93718349D02*
X106007000Y-93718349D01*
X112969000Y-93758349D02*
X110540000Y-93758349D01*
X108460000Y-93758349D02*
X106031000Y-93758349D01*
X112944000Y-93798349D02*
X110540000Y-93798349D01*
X108460000Y-93798349D02*
X106056000Y-93798349D01*
X112918000Y-93838349D02*
X110540000Y-93838349D01*
X108460000Y-93838349D02*
X106082000Y-93838349D01*
X112892000Y-93878349D02*
X110540000Y-93878349D01*
X108460000Y-93878349D02*
X106108000Y-93878349D01*
X112865000Y-93918349D02*
X110540000Y-93918349D01*
X108460000Y-93918349D02*
X106135000Y-93918349D01*
X112838000Y-93958349D02*
X110540000Y-93958349D01*
X108460000Y-93958349D02*
X106162000Y-93958349D01*
X112809000Y-93998349D02*
X110540000Y-93998349D01*
X108460000Y-93998349D02*
X106191000Y-93998349D01*
X112780000Y-94038349D02*
X110540000Y-94038349D01*
X108460000Y-94038349D02*
X106220000Y-94038349D01*
X112750000Y-94078349D02*
X110540000Y-94078349D01*
X108460000Y-94078349D02*
X106250000Y-94078349D01*
X112720000Y-94118349D02*
X110540000Y-94118349D01*
X108460000Y-94118349D02*
X106280000Y-94118349D01*
X112689000Y-94158349D02*
X110540000Y-94158349D01*
X108460000Y-94158349D02*
X106311000Y-94158349D01*
X112656000Y-94198349D02*
X110540000Y-94198349D01*
X108460000Y-94198349D02*
X106344000Y-94198349D01*
X112624000Y-94238349D02*
X110540000Y-94238349D01*
X108460000Y-94238349D02*
X106376000Y-94238349D01*
X112590000Y-94278349D02*
X110540000Y-94278349D01*
X108460000Y-94278349D02*
X106410000Y-94278349D01*
X112555000Y-94318349D02*
X110540000Y-94318349D01*
X108460000Y-94318349D02*
X106445000Y-94318349D01*
X112519000Y-94358349D02*
X110540000Y-94358349D01*
X108460000Y-94358349D02*
X106481000Y-94358349D01*
X112483000Y-94398349D02*
X110540000Y-94398349D01*
X108460000Y-94398349D02*
X106517000Y-94398349D01*
X112445000Y-94438349D02*
X110540000Y-94438349D01*
X108460000Y-94438349D02*
X106555000Y-94438349D01*
X112407000Y-94478349D02*
X110540000Y-94478349D01*
X108460000Y-94478349D02*
X106593000Y-94478349D01*
X112367000Y-94518349D02*
X110540000Y-94518349D01*
X108460000Y-94518349D02*
X106633000Y-94518349D01*
X112326000Y-94558349D02*
X106674000Y-94558349D01*
X112284000Y-94598349D02*
X106716000Y-94598349D01*
X112241000Y-94638349D02*
X106759000Y-94638349D01*
X112197000Y-94678349D02*
X106803000Y-94678349D01*
X112151000Y-94718349D02*
X106849000Y-94718349D01*
X112104000Y-94758349D02*
X106896000Y-94758349D01*
X112056000Y-94798349D02*
X106944000Y-94798349D01*
X112005000Y-94838349D02*
X106995000Y-94838349D01*
X111954000Y-94878349D02*
X107046000Y-94878349D01*
X111900000Y-94918349D02*
X107100000Y-94918349D01*
X111845000Y-94958349D02*
X107155000Y-94958349D01*
X111787000Y-94998349D02*
X107213000Y-94998349D01*
X111728000Y-95038349D02*
X107272000Y-95038349D01*
X111666000Y-95078349D02*
X107334000Y-95078349D01*
X111602000Y-95118349D02*
X107398000Y-95118349D01*
X111534000Y-95158349D02*
X107466000Y-95158349D01*
X111464000Y-95198349D02*
X107536000Y-95198349D01*
X111390000Y-95238349D02*
X107610000Y-95238349D01*
X111313000Y-95278349D02*
X107687000Y-95278349D01*
X111231000Y-95318349D02*
X107769000Y-95318349D01*
X111145000Y-95358349D02*
X107855000Y-95358349D01*
X111052000Y-95398349D02*
X107948000Y-95398349D01*
X110953000Y-95438349D02*
X108047000Y-95438349D01*
X110846000Y-95478349D02*
X108154000Y-95478349D01*
X110729000Y-95518349D02*
X108271000Y-95518349D01*
X110598000Y-95558349D02*
X108402000Y-95558349D01*
X110448000Y-95598349D02*
X108552000Y-95598349D01*
X110268000Y-95638349D02*
X108732000Y-95638349D01*
X110033000Y-95678349D02*
X108967000Y-95678349D01*
X113620000Y-91597349D02*
G75*
G02*
X105380000Y-91597349I-4120000J0D01*
G01*
X105380000Y-91597349D02*
G75*
G02*
X113620000Y-91597349I4120000J0D01*
G01*
%TO.C,R3*%
X172500000Y-63810000D02*
X172500000Y-63120000D01*
X170780000Y-63120000D02*
X174220000Y-63120000D01*
X174220000Y-63120000D02*
X174220000Y-53880000D01*
X170780000Y-53880000D02*
X170780000Y-63120000D01*
X174220000Y-53880000D02*
X170780000Y-53880000D01*
X172500000Y-53190000D02*
X172500000Y-53880000D01*
%TO.C,R2*%
X168810000Y-92500000D02*
X168120000Y-92500000D01*
X168120000Y-94220000D02*
X168120000Y-90780000D01*
X168120000Y-90780000D02*
X158880000Y-90780000D01*
X158880000Y-94220000D02*
X168120000Y-94220000D01*
X158880000Y-90780000D02*
X158880000Y-94220000D01*
X158190000Y-92500000D02*
X158880000Y-92500000D01*
%TO.C,R1*%
X111690000Y-80000000D02*
X112380000Y-80000000D01*
X112380000Y-78280000D02*
X112380000Y-81720000D01*
X112380000Y-81720000D02*
X121620000Y-81720000D01*
X121620000Y-78280000D02*
X112380000Y-78280000D01*
X121620000Y-81720000D02*
X121620000Y-78280000D01*
X122310000Y-80000000D02*
X121620000Y-80000000D01*
%TO.C,D4*%
X167565000Y-86236000D02*
X167565000Y-86080000D01*
X167565000Y-83920000D02*
X167565000Y-83764000D01*
X167565000Y-86235516D02*
G75*
G02*
X164332665Y-86078608I-1560000J1235516D01*
G01*
X167045961Y-86080000D02*
G75*
G02*
X164963870Y-86079837I-1040961J1080000D01*
G01*
X164963870Y-83920163D02*
G75*
G02*
X167045961Y-83920000I1041130J-1079837D01*
G01*
X164332665Y-83921392D02*
G75*
G02*
X167565000Y-83764484I1672335J-1078608D01*
G01*
%TO.C,D1*%
X130565000Y-81236000D02*
X130565000Y-81080000D01*
X130565000Y-78920000D02*
X130565000Y-78764000D01*
X130565000Y-81235516D02*
G75*
G02*
X127332665Y-81078608I-1560000J1235516D01*
G01*
X130045961Y-81080000D02*
G75*
G02*
X127963870Y-81079837I-1040961J1080000D01*
G01*
X127963870Y-78920163D02*
G75*
G02*
X130045961Y-78920000I1041130J-1079837D01*
G01*
X127332665Y-78921392D02*
G75*
G02*
X130565000Y-78764484I1672335J-1078608D01*
G01*
%TO.C,J1*%
X126610000Y-96130000D02*
X127940000Y-96130000D01*
X126610000Y-97460000D02*
X126610000Y-96130000D01*
X129210000Y-96130000D02*
X147050000Y-96130000D01*
X129210000Y-98790000D02*
X129210000Y-96130000D01*
X129210000Y-98790000D02*
X147050000Y-98790000D01*
X147050000Y-98790000D02*
X147050000Y-96130000D01*
%TO.C,J3*%
X149470000Y-96130000D02*
X150800000Y-96130000D01*
X149470000Y-97460000D02*
X149470000Y-96130000D01*
X152070000Y-96130000D02*
X164830000Y-96130000D01*
X152070000Y-98790000D02*
X152070000Y-96130000D01*
X152070000Y-98790000D02*
X164830000Y-98790000D01*
X164830000Y-98790000D02*
X164830000Y-96130000D01*
%TO.C,J2*%
X117466000Y-47870000D02*
X118796000Y-47870000D01*
X117466000Y-49200000D02*
X117466000Y-47870000D01*
X120066000Y-47870000D02*
X142986000Y-47870000D01*
X120066000Y-50530000D02*
X120066000Y-47870000D01*
X120066000Y-50530000D02*
X142986000Y-50530000D01*
X142986000Y-50530000D02*
X142986000Y-47870000D01*
%TO.C,J4*%
X144390000Y-47870000D02*
X145720000Y-47870000D01*
X144390000Y-49200000D02*
X144390000Y-47870000D01*
X146990000Y-47870000D02*
X164830000Y-47870000D01*
X146990000Y-50530000D02*
X146990000Y-47870000D01*
X146990000Y-50530000D02*
X164830000Y-50530000D01*
X164830000Y-50530000D02*
X164830000Y-47870000D01*
%TO.C,JFUENTE1*%
X106950000Y-85180000D02*
X106950000Y-74280000D01*
X105950000Y-85180000D02*
X105950000Y-74280000D01*
X102849000Y-85180000D02*
X102849000Y-74280000D01*
X101130000Y-85180000D02*
X101130000Y-74280000D01*
X107870000Y-85180000D02*
X107870000Y-74280000D01*
X101130000Y-85180000D02*
X107870000Y-85180000D01*
X101130000Y-74280000D02*
X107870000Y-74280000D01*
X107070000Y-85420000D02*
X108110000Y-85420000D01*
X108110000Y-85420000D02*
X108110000Y-84620000D01*
%TO.C,Q1*%
X175825000Y-68380000D02*
X171184000Y-68380000D01*
X175825000Y-68380000D02*
X175825000Y-78620000D01*
X174315000Y-68380000D02*
X174315000Y-78620000D01*
X171184000Y-68380000D02*
X171184000Y-78620000D01*
X175825000Y-71650000D02*
X174315000Y-71650000D01*
X175825000Y-75351000D02*
X174315000Y-75351000D01*
X175825000Y-78620000D02*
X171184000Y-78620000D01*
%TO.C,MOTZ1*%
X167760000Y-74790000D02*
X167760000Y-54210000D01*
X167760000Y-54210000D02*
X154930000Y-54210000D01*
X165090000Y-54210000D02*
X165090000Y-74790000D01*
X154930000Y-56880000D02*
X154930000Y-74790000D01*
X154930000Y-56880000D02*
X152260000Y-56880000D01*
X154930000Y-54210000D02*
X154930000Y-56880000D01*
X153660000Y-54210000D02*
X152260000Y-54210000D01*
X152260000Y-74790000D02*
X167760000Y-74790000D01*
X152260000Y-56880000D02*
X152260000Y-74790000D01*
X152260000Y-54210000D02*
X152260000Y-55610000D01*
%TO.C,MOTX1*%
X122760000Y-74290000D02*
X122760000Y-53710000D01*
X122760000Y-53710000D02*
X109930000Y-53710000D01*
X120090000Y-53710000D02*
X120090000Y-74290000D01*
X109930000Y-56380000D02*
X109930000Y-74290000D01*
X109930000Y-56380000D02*
X107260000Y-56380000D01*
X109930000Y-53710000D02*
X109930000Y-56380000D01*
X108660000Y-53710000D02*
X107260000Y-53710000D01*
X107260000Y-74290000D02*
X122760000Y-74290000D01*
X107260000Y-56380000D02*
X107260000Y-74290000D01*
X107260000Y-53710000D02*
X107260000Y-55110000D01*
%TO.C,JMOT2*%
X150830000Y-61770000D02*
X150830000Y-69450000D01*
X150830000Y-59170000D02*
X150830000Y-60500000D01*
X149500000Y-59170000D02*
X150830000Y-59170000D01*
X148170000Y-69450000D02*
X150830000Y-69450000D01*
X148170000Y-61770000D02*
X150830000Y-61770000D01*
X148170000Y-61770000D02*
X148170000Y-69450000D01*
%TO.C,JMOT0*%
X104830000Y-61270000D02*
X104830000Y-68950000D01*
X104830000Y-58670000D02*
X104830000Y-60000000D01*
X103500000Y-58670000D02*
X104830000Y-58670000D01*
X102170000Y-68950000D02*
X104830000Y-68950000D01*
X102170000Y-61270000D02*
X104830000Y-61270000D01*
X102170000Y-61270000D02*
X102170000Y-68950000D01*
%TO.C,JMOT1*%
X128330000Y-62230000D02*
X128330000Y-69910000D01*
X128330000Y-59630000D02*
X128330000Y-60960000D01*
X127000000Y-59630000D02*
X128330000Y-59630000D01*
X125670000Y-69910000D02*
X128330000Y-69910000D01*
X125670000Y-62230000D02*
X128330000Y-62230000D01*
X125670000Y-62230000D02*
X125670000Y-69910000D01*
%TO.C,JLIMZ1*%
X150130000Y-82130000D02*
X150130000Y-87330000D01*
X150130000Y-82130000D02*
X152730000Y-82130000D01*
X150130000Y-87330000D02*
X155330000Y-87330000D01*
X152730000Y-82130000D02*
X152730000Y-84730000D01*
X152730000Y-84730000D02*
X155330000Y-84730000D01*
X154000000Y-82130000D02*
X155330000Y-82130000D01*
X155330000Y-82130000D02*
X155330000Y-83460000D01*
X155330000Y-84730000D02*
X155330000Y-87330000D01*
%TO.C,JLIMY1*%
X142630000Y-82170000D02*
X142630000Y-87370000D01*
X142630000Y-82170000D02*
X145230000Y-82170000D01*
X142630000Y-87370000D02*
X147830000Y-87370000D01*
X145230000Y-82170000D02*
X145230000Y-84770000D01*
X145230000Y-84770000D02*
X147830000Y-84770000D01*
X146500000Y-82170000D02*
X147830000Y-82170000D01*
X147830000Y-82170000D02*
X147830000Y-83500000D01*
X147830000Y-84770000D02*
X147830000Y-87370000D01*
%TO.C,J5*%
X171340000Y-79580000D02*
X170600000Y-79580000D01*
X170600000Y-79580000D02*
X170600000Y-80080000D01*
X180761000Y-79820000D02*
X170840000Y-79820000D01*
X180761000Y-79820000D02*
X180761000Y-90100000D01*
X177801000Y-79820000D02*
X177801000Y-90100000D01*
X172900000Y-79820000D02*
X172900000Y-90100000D01*
X171400000Y-79820000D02*
X171400000Y-90100000D01*
X170840000Y-79820000D02*
X170840000Y-90100000D01*
X174477000Y-86273000D02*
X174431000Y-86226000D01*
X174261000Y-86466000D02*
X174226000Y-86431000D01*
X176775000Y-88570000D02*
X176739000Y-88535000D01*
X176569000Y-88775000D02*
X176523000Y-88728000D01*
X180761000Y-90100000D02*
X170840000Y-90100000D01*
X174816958Y-80884573D02*
G75*
G02*
X176184000Y-80885000I683041J-1535420D01*
G01*
X177035427Y-81736958D02*
G75*
G02*
X177035000Y-83104000I-1535420J-683041D01*
G01*
X173819747Y-82448805D02*
G75*
G02*
X173965000Y-81736000I1680254J28806D01*
G01*
X173965244Y-83103318D02*
G75*
G02*
X173820000Y-82420000I1534756J683318D01*
G01*
X176183042Y-83955427D02*
G75*
G02*
X174816000Y-83955000I-683042J1535427D01*
G01*
X177180000Y-87500000D02*
G75*
G02*
X173820000Y-87500000I-1680000J0D01*
G01*
X173820000Y-87500000D02*
G75*
G02*
X177180000Y-87500000I1680000J0D01*
G01*
%TO.C,MOTY1*%
X130760000Y-54210000D02*
X130760000Y-55610000D01*
X130760000Y-56880000D02*
X130760000Y-74790000D01*
X130760000Y-74790000D02*
X146260000Y-74790000D01*
X132160000Y-54210000D02*
X130760000Y-54210000D01*
X133430000Y-54210000D02*
X133430000Y-56880000D01*
X133430000Y-56880000D02*
X130760000Y-56880000D01*
X133430000Y-56880000D02*
X133430000Y-74790000D01*
X143590000Y-54210000D02*
X143590000Y-74790000D01*
X146260000Y-54210000D02*
X133430000Y-54210000D01*
X146260000Y-74790000D02*
X146260000Y-54210000D01*
%TO.C,JOUT1*%
X177855000Y-48020000D02*
X177855000Y-50620000D01*
X177855000Y-45420000D02*
X177855000Y-46750000D01*
X176525000Y-45420000D02*
X177855000Y-45420000D01*
X175195000Y-50620000D02*
X177855000Y-50620000D01*
X175195000Y-48020000D02*
X177855000Y-48020000D01*
X175195000Y-48020000D02*
X175195000Y-50620000D01*
%TO.C,JLIMX1*%
X135130000Y-82130000D02*
X135130000Y-87330000D01*
X135130000Y-82130000D02*
X137730000Y-82130000D01*
X135130000Y-87330000D02*
X140330000Y-87330000D01*
X137730000Y-82130000D02*
X137730000Y-84730000D01*
X137730000Y-84730000D02*
X140330000Y-84730000D01*
X139000000Y-82130000D02*
X140330000Y-82130000D01*
X140330000Y-82130000D02*
X140330000Y-83460000D01*
X140330000Y-84730000D02*
X140330000Y-87330000D01*
%TO.C,R4*%
X179000000Y-76810000D02*
X179000000Y-76120000D01*
X177280000Y-76120000D02*
X180720000Y-76120000D01*
X180720000Y-76120000D02*
X180720000Y-66880000D01*
X177280000Y-66880000D02*
X177280000Y-76120000D01*
X180720000Y-66880000D02*
X177280000Y-66880000D01*
X179000000Y-66190000D02*
X179000000Y-66880000D01*
%TD*%
M02*
