%TF.GenerationSoftware,KiCad,Pcbnew,8.0.3*%
%TF.CreationDate,2024-08-02T22:15:16+02:00*%
%TF.ProjectId,ARD-MOTORES2,4152442d-4d4f-4544-9f52-4553322e6b69,rev?*%
%TF.SameCoordinates,Original*%
%TF.FileFunction,Copper,L1,Top*%
%TF.FilePolarity,Positive*%
%FSLAX46Y46*%
G04 Gerber Fmt 4.6, Leading zero omitted, Abs format (unit mm)*
G04 Created by KiCad (PCBNEW 8.0.3) date 2024-08-02 22:15:16*
%MOMM*%
%LPD*%
G01*
G04 APERTURE LIST*
%TA.AperFunction,ComponentPad*%
%ADD10R,1.600000X1.600000*%
%TD*%
%TA.AperFunction,ComponentPad*%
%ADD11C,1.600000*%
%TD*%
%TA.AperFunction,ComponentPad*%
%ADD12O,1.600000X1.600000*%
%TD*%
%TA.AperFunction,ComponentPad*%
%ADD13R,1.800000X1.800000*%
%TD*%
%TA.AperFunction,ComponentPad*%
%ADD14C,1.800000*%
%TD*%
%TA.AperFunction,ComponentPad*%
%ADD15R,1.700000X1.700000*%
%TD*%
%TA.AperFunction,ComponentPad*%
%ADD16O,1.700000X1.700000*%
%TD*%
%TA.AperFunction,ComponentPad*%
%ADD17R,2.000000X2.000000*%
%TD*%
%TA.AperFunction,ComponentPad*%
%ADD18C,2.000000*%
%TD*%
%TA.AperFunction,ComponentPad*%
%ADD19R,2.000000X1.905000*%
%TD*%
%TA.AperFunction,ComponentPad*%
%ADD20O,2.000000X1.905000*%
%TD*%
%TA.AperFunction,ComponentPad*%
%ADD21R,2.600000X2.600000*%
%TD*%
%TA.AperFunction,ComponentPad*%
%ADD22C,2.600000*%
%TD*%
G04 APERTURE END LIST*
D10*
%TO.P,C3,1*%
%TO.N,+12V*%
X128000000Y-89500000D03*
D11*
%TO.P,C3,2*%
%TO.N,GND*%
X128000000Y-93300000D03*
%TD*%
D10*
%TO.P,C2,1*%
%TO.N,+12V*%
X118500000Y-89500000D03*
D11*
%TO.P,C2,2*%
%TO.N,GND*%
X118500000Y-93300000D03*
%TD*%
D10*
%TO.P,C1,1*%
%TO.N,+12V*%
X109500000Y-89697349D03*
D11*
%TO.P,C1,2*%
%TO.N,GND*%
X109500000Y-93497349D03*
%TD*%
D12*
%TO.P,R3,2*%
%TO.N,Net-(Q1-G)*%
X172500000Y-64850000D03*
D11*
%TO.P,R3,1*%
%TO.N,/\u002A11*%
X172500000Y-52150000D03*
%TD*%
D12*
%TO.P,R2,2*%
%TO.N,Net-(D4-A)*%
X169850000Y-92500000D03*
D11*
%TO.P,R2,1*%
%TO.N,+5V*%
X157150000Y-92500000D03*
%TD*%
%TO.P,R1,1*%
%TO.N,+5V*%
X110650000Y-80000000D03*
D12*
%TO.P,R1,2*%
%TO.N,Net-(D1-A)*%
X123350000Y-80000000D03*
%TD*%
D13*
%TO.P,D4,1,K*%
%TO.N,Net-(D4-K)*%
X167275000Y-85000000D03*
D14*
%TO.P,D4,2,A*%
%TO.N,Net-(D4-A)*%
X164735000Y-85000000D03*
%TD*%
D13*
%TO.P,D1,1,K*%
%TO.N,GND*%
X130275000Y-80000000D03*
D14*
%TO.P,D1,2,A*%
%TO.N,Net-(D1-A)*%
X127735000Y-80000000D03*
%TD*%
D15*
%TO.P,J1,1,Pin_1*%
%TO.N,unconnected-(J1-Pin_1-Pad1)*%
X127940000Y-97460000D03*
D16*
%TO.P,J1,2,Pin_2*%
%TO.N,/IOREF*%
X130480000Y-97460000D03*
%TO.P,J1,3,Pin_3*%
%TO.N,/~{RESET}*%
X133020000Y-97460000D03*
%TO.P,J1,4,Pin_4*%
%TO.N,+3V3*%
X135560000Y-97460000D03*
%TO.P,J1,5,Pin_5*%
%TO.N,+5V*%
X138100000Y-97460000D03*
%TO.P,J1,6,Pin_6*%
%TO.N,GND*%
X140640000Y-97460000D03*
%TO.P,J1,7,Pin_7*%
X143180000Y-97460000D03*
%TO.P,J1,8,Pin_8*%
%TO.N,unconnected-(J1-Pin_8-Pad8)*%
X145720000Y-97460000D03*
%TD*%
D15*
%TO.P,J3,1,Pin_1*%
%TO.N,/A0*%
X150800000Y-97460000D03*
D16*
%TO.P,J3,2,Pin_2*%
%TO.N,/A1*%
X153340000Y-97460000D03*
%TO.P,J3,3,Pin_3*%
%TO.N,/A2*%
X155880000Y-97460000D03*
%TO.P,J3,4,Pin_4*%
%TO.N,/A3*%
X158420000Y-97460000D03*
%TO.P,J3,5,Pin_5*%
%TO.N,/SDA{slash}A4*%
X160960000Y-97460000D03*
%TO.P,J3,6,Pin_6*%
%TO.N,/SCL{slash}A5*%
X163500000Y-97460000D03*
%TD*%
D15*
%TO.P,J2,1,Pin_1*%
%TO.N,/SCL{slash}A5*%
X118796000Y-49200000D03*
D16*
%TO.P,J2,2,Pin_2*%
%TO.N,/SDA{slash}A4*%
X121336000Y-49200000D03*
%TO.P,J2,3,Pin_3*%
%TO.N,/AREF*%
X123876000Y-49200000D03*
%TO.P,J2,4,Pin_4*%
%TO.N,GND*%
X126416000Y-49200000D03*
%TO.P,J2,5,Pin_5*%
%TO.N,/13*%
X128956000Y-49200000D03*
%TO.P,J2,6,Pin_6*%
%TO.N,/12*%
X131496000Y-49200000D03*
%TO.P,J2,7,Pin_7*%
%TO.N,/\u002A11*%
X134036000Y-49200000D03*
%TO.P,J2,8,Pin_8*%
%TO.N,/\u002A10*%
X136576000Y-49200000D03*
%TO.P,J2,9,Pin_9*%
%TO.N,/\u002A9*%
X139116000Y-49200000D03*
%TO.P,J2,10,Pin_10*%
%TO.N,/8*%
X141656000Y-49200000D03*
%TD*%
D15*
%TO.P,J4,1,Pin_1*%
%TO.N,/7*%
X145720000Y-49200000D03*
D16*
%TO.P,J4,2,Pin_2*%
%TO.N,/\u002A6*%
X148260000Y-49200000D03*
%TO.P,J4,3,Pin_3*%
%TO.N,/\u002A5*%
X150800000Y-49200000D03*
%TO.P,J4,4,Pin_4*%
%TO.N,/4*%
X153340000Y-49200000D03*
%TO.P,J4,5,Pin_5*%
%TO.N,/\u002A3*%
X155880000Y-49200000D03*
%TO.P,J4,6,Pin_6*%
%TO.N,/2*%
X158420000Y-49200000D03*
%TO.P,J4,7,Pin_7*%
%TO.N,/TX{slash}1*%
X160960000Y-49200000D03*
%TO.P,J4,8,Pin_8*%
%TO.N,/RX{slash}0*%
X163500000Y-49200000D03*
%TD*%
D17*
%TO.P,JFUENTE1,1,Pin_1*%
%TO.N,GND*%
X104350000Y-83540000D03*
D18*
%TO.P,JFUENTE1,2,Pin_2*%
%TO.N,+3.3V*%
X104350000Y-81000000D03*
%TO.P,JFUENTE1,3,Pin_3*%
%TO.N,+5V*%
X104350000Y-78460000D03*
%TO.P,JFUENTE1,4,Pin_4*%
%TO.N,+12V*%
X104350000Y-75920000D03*
%TD*%
D19*
%TO.P,Q1,1,G*%
%TO.N,Net-(Q1-G)*%
X172555000Y-70960000D03*
D20*
%TO.P,Q1,2,D*%
%TO.N,Net-(D4-K)*%
X172555000Y-73500000D03*
%TO.P,Q1,3,S*%
%TO.N,GND*%
X172555000Y-76040000D03*
%TD*%
D12*
%TO.P,MOTZ1,16,DIR*%
%TO.N,/2*%
X166360000Y-55610000D03*
%TO.P,MOTZ1,15,STEP*%
%TO.N,/\u002A3*%
X166360000Y-58150000D03*
%TO.P,MOTZ1,14,~{SLEEP}*%
%TO.N,unconnected-(MOTZ1-~{SLEEP}-Pad14)*%
X166360000Y-60690000D03*
%TO.P,MOTZ1,13,~{RESET}*%
%TO.N,unconnected-(MOTZ1-~{RESET}-Pad13)*%
X166360000Y-63230000D03*
%TO.P,MOTZ1,12,MS3*%
%TO.N,/MOT2MS3*%
X166360000Y-65770000D03*
%TO.P,MOTZ1,11,MS2*%
%TO.N,/MOT2MS2*%
X166360000Y-68310000D03*
%TO.P,MOTZ1,10,MS1*%
%TO.N,/MOT2MS1*%
X166360000Y-70850000D03*
%TO.P,MOTZ1,9,~{ENABLE}*%
%TO.N,unconnected-(MOTZ1-~{ENABLE}-Pad9)*%
X166360000Y-73390000D03*
%TO.P,MOTZ1,8,VMOT*%
%TO.N,+12V*%
X153660000Y-73390000D03*
%TO.P,MOTZ1,7,GND*%
%TO.N,GND*%
X153660000Y-70850000D03*
%TO.P,MOTZ1,6,2B*%
%TO.N,/MOT22B*%
X153660000Y-68310000D03*
%TO.P,MOTZ1,5,2A*%
%TO.N,/MOT22A*%
X153660000Y-65770000D03*
%TO.P,MOTZ1,4,1A*%
%TO.N,/MOT21A*%
X153660000Y-63230000D03*
%TO.P,MOTZ1,3,1B*%
%TO.N,/MOT21B*%
X153660000Y-60690000D03*
%TO.P,MOTZ1,2,VDD*%
%TO.N,+5V*%
X153660000Y-58150000D03*
D10*
%TO.P,MOTZ1,1,GND*%
%TO.N,GND*%
X153660000Y-55610000D03*
%TD*%
D12*
%TO.P,MOTX1,16,DIR*%
%TO.N,/13*%
X121360000Y-55110000D03*
%TO.P,MOTX1,15,STEP*%
%TO.N,/12*%
X121360000Y-57650000D03*
%TO.P,MOTX1,14,~{SLEEP}*%
%TO.N,unconnected-(MOTX1-~{SLEEP}-Pad14)*%
X121360000Y-60190000D03*
%TO.P,MOTX1,13,~{RESET}*%
%TO.N,unconnected-(MOTX1-~{RESET}-Pad13)*%
X121360000Y-62730000D03*
%TO.P,MOTX1,12,MS3*%
%TO.N,/MOT0MS3*%
X121360000Y-65270000D03*
%TO.P,MOTX1,11,MS2*%
%TO.N,/MOT0MS2*%
X121360000Y-67810000D03*
%TO.P,MOTX1,10,MS1*%
%TO.N,/MOT0MS1*%
X121360000Y-70350000D03*
%TO.P,MOTX1,9,~{ENABLE}*%
%TO.N,unconnected-(MOTX1-~{ENABLE}-Pad9)*%
X121360000Y-72890000D03*
%TO.P,MOTX1,8,VMOT*%
%TO.N,+12V*%
X108660000Y-72890000D03*
%TO.P,MOTX1,7,GND*%
%TO.N,GND*%
X108660000Y-70350000D03*
%TO.P,MOTX1,6,2B*%
%TO.N,/MOT02B*%
X108660000Y-67810000D03*
%TO.P,MOTX1,5,2A*%
%TO.N,/MOT02A*%
X108660000Y-65270000D03*
%TO.P,MOTX1,4,1A*%
%TO.N,/MOT01A*%
X108660000Y-62730000D03*
%TO.P,MOTX1,3,1B*%
%TO.N,/MOT01B*%
X108660000Y-60190000D03*
%TO.P,MOTX1,2,VDD*%
%TO.N,+5V*%
X108660000Y-57650000D03*
D10*
%TO.P,MOTX1,1,GND*%
%TO.N,GND*%
X108660000Y-55110000D03*
%TD*%
D16*
%TO.P,JMOT2,4,Pin_4*%
%TO.N,/MOT22B*%
X149500000Y-68120000D03*
%TO.P,JMOT2,3,Pin_3*%
%TO.N,/MOT22A*%
X149500000Y-65580000D03*
%TO.P,JMOT2,2,Pin_2*%
%TO.N,/MOT21A*%
X149500000Y-63040000D03*
D15*
%TO.P,JMOT2,1,Pin_1*%
%TO.N,/MOT21B*%
X149500000Y-60500000D03*
%TD*%
D16*
%TO.P,JMOT0,4,Pin_4*%
%TO.N,/MOT02B*%
X103500000Y-67620000D03*
%TO.P,JMOT0,3,Pin_3*%
%TO.N,/MOT02A*%
X103500000Y-65080000D03*
%TO.P,JMOT0,2,Pin_2*%
%TO.N,/MOT01A*%
X103500000Y-62540000D03*
D15*
%TO.P,JMOT0,1,Pin_1*%
%TO.N,/MOT01B*%
X103500000Y-60000000D03*
%TD*%
D16*
%TO.P,JMOT1,4,Pin_4*%
%TO.N,/MOT12B*%
X127000000Y-68580000D03*
%TO.P,JMOT1,3,Pin_3*%
%TO.N,/MOT12A*%
X127000000Y-66040000D03*
%TO.P,JMOT1,2,Pin_2*%
%TO.N,/MOT11A*%
X127000000Y-63500000D03*
D15*
%TO.P,JMOT1,1,Pin_1*%
%TO.N,/MOT11B*%
X127000000Y-60960000D03*
%TD*%
%TO.P,JLIMZ1,1,Pin_1*%
%TO.N,/7*%
X154000000Y-83460000D03*
D16*
%TO.P,JLIMZ1,2,Pin_2*%
%TO.N,GND*%
X151460000Y-83460000D03*
%TO.P,JLIMZ1,3,Pin_3*%
%TO.N,/7*%
X154000000Y-86000000D03*
%TO.P,JLIMZ1,4,Pin_4*%
%TO.N,GND*%
X151460000Y-86000000D03*
%TD*%
D15*
%TO.P,JLIMY1,1,Pin_1*%
%TO.N,/8*%
X146500000Y-83500000D03*
D16*
%TO.P,JLIMY1,2,Pin_2*%
%TO.N,GND*%
X143960000Y-83500000D03*
%TO.P,JLIMY1,3,Pin_3*%
%TO.N,/8*%
X146500000Y-86040000D03*
%TO.P,JLIMY1,4,Pin_4*%
%TO.N,GND*%
X143960000Y-86040000D03*
%TD*%
D21*
%TO.P,J5,1,Pin_1*%
%TO.N,+12V*%
X175500000Y-82420000D03*
D22*
%TO.P,J5,2,Pin_2*%
%TO.N,Net-(D4-K)*%
X175500000Y-87500000D03*
%TD*%
D10*
%TO.P,MOTY1,1,GND*%
%TO.N,GND*%
X132160000Y-55610000D03*
D12*
%TO.P,MOTY1,2,VDD*%
%TO.N,+5V*%
X132160000Y-58150000D03*
%TO.P,MOTY1,3,1B*%
%TO.N,/MOT11B*%
X132160000Y-60690000D03*
%TO.P,MOTY1,4,1A*%
%TO.N,/MOT11A*%
X132160000Y-63230000D03*
%TO.P,MOTY1,5,2A*%
%TO.N,/MOT12A*%
X132160000Y-65770000D03*
%TO.P,MOTY1,6,2B*%
%TO.N,/MOT12B*%
X132160000Y-68310000D03*
%TO.P,MOTY1,7,GND*%
%TO.N,GND*%
X132160000Y-70850000D03*
%TO.P,MOTY1,8,VMOT*%
%TO.N,+12V*%
X132160000Y-73390000D03*
%TO.P,MOTY1,9,~{ENABLE}*%
%TO.N,unconnected-(MOTY1-~{ENABLE}-Pad9)*%
X144860000Y-73390000D03*
%TO.P,MOTY1,10,MS1*%
%TO.N,/MOT1MS1*%
X144860000Y-70850000D03*
%TO.P,MOTY1,11,MS2*%
%TO.N,/MOT1MS2*%
X144860000Y-68310000D03*
%TO.P,MOTY1,12,MS3*%
%TO.N,/MOT1MS3*%
X144860000Y-65770000D03*
%TO.P,MOTY1,13,~{RESET}*%
%TO.N,unconnected-(MOTY1-~{RESET}-Pad13)*%
X144860000Y-63230000D03*
%TO.P,MOTY1,14,~{SLEEP}*%
%TO.N,unconnected-(MOTY1-~{SLEEP}-Pad14)*%
X144860000Y-60690000D03*
%TO.P,MOTY1,15,STEP*%
%TO.N,/\u002A11*%
X144860000Y-58150000D03*
%TO.P,MOTY1,16,DIR*%
%TO.N,/\u002A10*%
X144860000Y-55610000D03*
%TD*%
D16*
%TO.P,JOUT1,2,Pin_2*%
%TO.N,/RX{slash}0*%
X176525000Y-49290000D03*
D15*
%TO.P,JOUT1,1,Pin_1*%
%TO.N,/TX{slash}1*%
X176525000Y-46750000D03*
%TD*%
%TO.P,JLIMX1,1,Pin_1*%
%TO.N,/\u002A9*%
X139000000Y-83460000D03*
D16*
%TO.P,JLIMX1,2,Pin_2*%
%TO.N,GND*%
X136460000Y-83460000D03*
%TO.P,JLIMX1,3,Pin_3*%
%TO.N,/\u002A9*%
X139000000Y-86000000D03*
%TO.P,JLIMX1,4,Pin_4*%
%TO.N,GND*%
X136460000Y-86000000D03*
%TD*%
D11*
%TO.P,R4,1*%
%TO.N,GND*%
X179000000Y-77850000D03*
D12*
%TO.P,R4,2*%
%TO.N,Net-(Q1-G)*%
X179000000Y-65150000D03*
%TD*%
M02*
